<svg id="svg" version="1.1" xmlns="http://www.w3.org/2000/svg" xmlns:xlink="http://www.w3.org/1999/xlink" width="400" height="282.7083333333333" viewBox="0, 0, 400,282.7083333333333"><g id="svgg"><path id="path0" d="M90.403 14.740 C 86.095 16.923,87.706 23.333,92.563 23.333 C 95.257 23.333,96.914 21.764,97.049 19.082 C 97.241 15.278,93.789 13.023,90.403 14.740 M91.228 16.536 C 91.550 16.924,91.297 17.500,90.805 17.500 C 90.299 17.500,90.081 16.967,90.419 16.560 C 90.738 16.175,90.924 16.170,91.228 16.536 M362.284 188.725 C 359.259 189.353,357.000 192.125,357.000 195.208 C 357.000 200.823,363.854 204.041,368.014 200.379 C 372.963 196.023,368.717 187.390,362.284 188.725 M361.171 192.196 C 361.447 192.618,361.470 192.829,361.287 193.232 C 360.832 194.229,359.309 194.076,359.040 193.006 C 358.740 191.812,360.484 191.149,361.171 192.196 M30.099 229.666 C 28.994 230.147,28.958 230.417,28.958 238.357 C 28.958 246.114,28.974 246.240,29.996 246.769 C 30.827 247.198,95.184 247.246,96.042 246.817 C 97.220 246.228,97.291 245.744,97.291 238.275 C 97.292 230.748,97.228 230.301,96.068 229.701 C 95.193 229.249,31.135 229.214,30.099 229.666 " stroke="none" fill="#f4ec5c" fill-rule="evenodd"></path><path id="path1" d="M105.521 14.456 C 102.231 15.893,101.631 20.750,104.495 22.762 C 108.658 25.686,113.992 21.206,111.691 16.718 C 110.630 14.649,107.612 13.542,105.521 14.456 M105.603 16.536 C 105.925 16.924,105.672 17.500,105.180 17.500 C 104.674 17.500,104.456 16.967,104.794 16.560 C 105.113 16.175,105.299 16.170,105.603 16.536 M66.094 41.563 C 66.097 42.021,66.139 42.184,66.189 41.925 C 66.239 41.666,66.237 41.291,66.185 41.091 C 66.133 40.892,66.092 41.104,66.094 41.563 M58.223 58.385 L 56.979 59.688 58.281 58.444 C 59.491 57.289,59.679 57.083,59.525 57.083 C 59.492 57.083,58.907 57.669,58.223 58.385 M41.827 65.984 C 42.201 66.031,42.764 66.030,43.077 65.982 C 43.390 65.935,43.083 65.897,42.396 65.898 C 41.708 65.899,41.452 65.938,41.827 65.984 M59.382 207.564 C 57.980 208.047,57.384 209.567,58.049 210.967 C 58.679 212.295,58.653 212.292,68.031 212.292 L 76.500 212.292 77.208 211.583 C 78.558 210.234,77.947 208.026,76.080 207.507 C 74.951 207.194,60.313 207.243,59.382 207.564 " stroke="none" fill="#30f454" fill-rule="evenodd"></path><path id="path2" d="M195.712 0.237 C 195.651 0.336,195.325 0.417,194.988 0.417 L 194.375 0.417 194.375 129.896 L 194.375 259.375 196.771 259.375 L 199.167 259.375 199.167 129.792 L 199.167 0.208 197.969 0.182 C 197.310 0.167,196.558 0.133,196.297 0.106 C 196.036 0.079,195.773 0.137,195.712 0.237 M188.333 1.892 C 188.333 2.036,188.275 2.094,188.203 2.022 C 188.011 1.830,186.946 2.431,186.799 2.814 C 186.697 3.079,186.588 3.098,186.235 2.909 C 185.995 2.780,185.743 2.729,185.677 2.796 C 185.610 2.862,185.649 2.917,185.764 2.917 C 185.878 2.917,185.972 3.043,185.972 3.198 C 185.972 3.383,185.773 3.456,185.391 3.411 C 185.071 3.374,184.760 3.424,184.699 3.523 C 184.638 3.622,184.704 3.690,184.846 3.674 C 184.988 3.659,185.104 3.717,185.104 3.805 C 185.104 3.893,147.792 3.986,102.188 4.013 C 30.818 4.056,19.209 4.104,18.824 4.359 C 18.433 4.619,18.289 4.613,17.678 4.311 C 17.018 3.985,16.961 3.987,16.660 4.345 C 16.410 4.643,16.262 4.676,15.971 4.498 C 15.677 4.318,15.538 4.355,15.300 4.675 C 15.135 4.898,15.000 4.978,15.000 4.854 C 15.000 4.730,14.855 4.572,14.677 4.504 C 14.499 4.436,14.404 4.462,14.467 4.563 C 14.529 4.665,14.343 4.807,14.053 4.880 C 13.748 4.956,13.583 5.107,13.663 5.237 C 13.753 5.383,13.656 5.415,13.387 5.330 C 12.910 5.178,11.797 5.539,11.955 5.794 C 12.013 5.887,11.714 5.937,11.290 5.905 C 10.867 5.872,10.615 5.913,10.729 5.995 C 11.114 6.273,11.021 6.593,10.561 6.578 C 10.217 6.566,10.108 6.678,10.121 7.031 C 10.130 7.289,10.054 7.500,9.952 7.500 C 9.850 7.500,9.826 7.596,9.899 7.713 C 9.972 7.831,9.954 7.914,9.859 7.897 C 9.765 7.881,9.594 7.878,9.479 7.892 C 9.110 7.936,9.312 27.668,9.690 28.469 C 9.959 29.038,10.000 32.183,10.000 51.959 L 10.000 74.792 30.219 74.784 C 50.642 74.777,56.086 74.640,57.604 74.096 C 60.966 72.890,66.580 69.827,83.505 59.965 C 117.247 40.303,119.264 39.120,121.170 37.888 C 124.348 35.833,125.124 35.598,129.375 35.400 C 136.680 35.060,184.391 34.754,184.742 35.045 C 185.024 35.279,185.045 36.280,184.920 43.541 C 184.797 50.675,184.943 94.819,185.538 230.313 C 185.614 247.615,185.697 261.795,185.722 261.825 C 185.747 261.854,186.485 261.547,187.363 261.141 L 188.959 260.404 188.906 131.105 C 188.865 27.888,188.802 1.788,188.594 1.719 C 188.451 1.671,188.333 1.749,188.333 1.892 M80.726 12.691 C 83.999 14.302,85.468 18.412,83.937 21.676 C 80.862 28.235,71.203 26.538,70.674 19.345 C 70.278 13.952,75.826 10.279,80.726 12.691 M95.518 12.594 C 101.287 15.416,100.563 23.761,94.394 25.555 C 89.043 27.110,84.049 21.674,86.023 16.442 C 87.455 12.647,91.925 10.836,95.518 12.594 M110.259 12.553 C 115.489 14.947,115.684 22.252,110.590 25.014 C 107.005 26.957,102.281 25.175,100.845 21.336 C 98.684 15.561,104.657 9.988,110.259 12.553 M45.961 13.031 C 51.217 13.947,57.913 17.362,61.834 21.126 C 77.593 36.251,70.027 62.349,48.533 67.003 C 44.793 67.813,37.322 67.355,36.139 66.243 C 35.899 66.018,35.580 65.833,35.430 65.833 C 32.790 65.833,25.807 61.981,22.375 58.631 C 3.752 40.453,20.254 8.548,45.961 13.031 M76.408 14.663 C 73.477 15.740,72.369 18.598,73.876 21.194 C 74.731 22.666,75.974 22.908,77.859 21.969 C 82.149 19.831,80.803 13.049,76.408 14.663 M76.020 16.536 C 76.476 17.086,75.808 17.845,75.104 17.575 C 74.790 17.455,74.672 16.648,74.931 16.389 C 75.166 16.153,75.770 16.235,76.020 16.536 M252.959 34.792 C 253.002 35.400,252.850 35.417,247.101 35.417 C 243.285 35.417,241.260 35.343,241.213 35.202 C 241.136 34.970,229.524 34.883,229.154 35.112 C 229.043 35.181,229.005 35.324,229.071 35.431 C 229.145 35.550,225.824 35.625,220.533 35.625 L 211.875 35.625 211.875 149.974 L 211.875 264.324 247.344 264.451 C 336.159 264.772,382.687 264.721,384.271 264.302 C 388.788 263.107,391.395 260.753,392.733 256.658 L 393.338 254.809 393.338 236.051 C 393.338 223.825,393.410 217.292,393.544 217.292 C 393.924 217.292,393.817 169.055,393.436 168.674 C 393.208 168.446,393.188 168.319,393.363 168.211 C 393.545 168.098,393.590 157.933,393.547 126.895 C 393.515 104.254,393.555 84.487,393.637 82.969 C 393.743 80.991,393.719 80.208,393.552 80.208 C 393.395 80.208,393.329 79.511,393.349 78.037 C 393.365 76.842,393.315 75.764,393.239 75.641 C 393.141 75.483,386.055 75.417,369.271 75.417 C 353.609 75.417,345.397 75.345,345.313 75.208 C 345.236 75.084,343.921 75.000,342.071 75.000 C 340.135 75.000,338.958 75.079,338.958 75.208 C 338.958 75.576,337.929 75.431,337.677 75.028 C 337.422 74.618,336.669 74.654,336.663 75.076 C 336.662 75.206,336.574 75.176,336.469 75.010 C 336.364 74.844,336.316 74.646,336.362 74.570 C 336.409 74.495,336.075 74.501,335.619 74.584 C 334.841 74.727,334.693 74.649,334.760 74.136 C 334.770 74.062,334.617 74.040,334.420 74.087 C 333.945 74.202,332.803 73.858,332.850 73.615 C 332.870 73.509,332.706 73.403,332.485 73.378 C 332.264 73.353,331.903 73.313,331.682 73.289 C 331.461 73.264,331.319 73.181,331.367 73.105 C 331.472 72.935,330.178 72.286,329.978 72.409 C 329.900 72.458,329.778 72.348,329.708 72.165 C 329.626 71.952,329.451 71.881,329.223 71.969 C 329.027 72.044,328.929 72.044,329.004 71.968 C 329.276 71.696,328.370 70.983,327.907 71.104 C 327.661 71.169,327.512 71.169,327.576 71.104 C 327.784 70.897,326.667 70.164,326.337 70.290 C 326.157 70.359,326.075 70.323,326.147 70.206 C 326.261 70.022,325.984 69.918,325.738 70.052 C 325.686 70.081,325.512 69.926,325.353 69.708 C 325.192 69.488,324.956 69.378,324.822 69.461 C 324.687 69.544,324.525 69.466,324.456 69.285 C 324.387 69.107,324.247 69.013,324.145 69.076 C 324.042 69.139,323.958 69.086,323.958 68.958 C 323.958 68.830,323.865 68.783,323.750 68.854 C 323.635 68.925,323.542 68.878,323.542 68.750 C 323.542 68.622,323.458 68.569,323.355 68.632 C 323.253 68.696,323.113 68.602,323.044 68.423 C 322.974 68.242,322.813 68.165,322.678 68.248 C 322.530 68.339,322.492 68.307,322.579 68.166 C 322.756 67.880,321.541 67.216,321.212 67.420 C 321.058 67.515,321.036 67.469,321.148 67.288 C 321.273 67.086,321.223 67.049,320.961 67.150 C 320.746 67.232,320.655 67.204,320.732 67.079 C 320.803 66.964,320.573 66.813,320.222 66.742 C 319.871 66.672,319.583 66.542,319.583 66.453 C 319.583 66.364,319.279 66.096,318.906 65.857 C 318.534 65.619,318.362 65.422,318.524 65.420 C 318.687 65.418,318.765 65.362,318.698 65.296 C 318.632 65.229,318.371 65.285,318.118 65.421 C 317.752 65.616,317.691 65.613,317.822 65.402 C 317.938 65.213,317.883 65.177,317.628 65.275 C 317.431 65.350,317.321 65.329,317.384 65.228 C 317.446 65.127,317.352 64.988,317.173 64.919 C 316.995 64.851,316.913 64.691,316.991 64.564 C 317.087 64.409,316.980 64.416,316.667 64.583 C 316.389 64.732,316.254 64.745,316.335 64.615 C 316.487 64.368,315.713 63.879,315.439 64.049 C 315.341 64.109,315.008 63.925,314.699 63.639 C 314.391 63.352,314.036 63.181,313.912 63.258 C 313.777 63.341,313.746 63.301,313.835 63.157 C 313.993 62.901,313.014 62.415,312.714 62.600 C 312.484 62.743,312.055 62.191,312.128 61.845 C 312.168 61.654,311.974 61.563,311.530 61.563 C 311.168 61.564,310.917 61.492,310.972 61.403 C 311.100 61.196,309.753 60.625,309.501 60.780 C 309.392 60.847,309.384 60.780,309.481 60.622 C 309.605 60.422,309.557 60.382,309.308 60.478 C 309.118 60.551,308.973 60.543,308.986 60.461 C 309.055 59.997,308.933 59.507,308.799 59.708 C 308.632 59.958,307.876 60.027,308.029 59.778 C 308.169 59.552,306.469 58.719,306.204 58.883 C 306.064 58.969,306.037 58.925,306.135 58.768 C 306.240 58.597,306.166 58.535,305.906 58.580 C 305.633 58.627,305.527 58.525,305.541 58.229 C 305.556 57.932,305.421 57.804,305.068 57.782 C 304.493 57.747,303.913 57.326,304.075 57.063 C 304.138 56.961,303.985 56.956,303.726 57.051 C 303.389 57.176,303.159 57.117,302.874 56.833 C 302.660 56.618,302.380 56.508,302.252 56.587 C 302.110 56.675,302.077 56.637,302.168 56.491 C 302.249 56.358,302.217 56.238,302.096 56.224 C 301.272 56.127,300.616 55.808,300.760 55.575 C 300.849 55.431,300.781 55.392,300.579 55.470 C 300.348 55.558,300.282 55.492,300.349 55.238 C 300.439 54.893,300.252 54.815,299.130 54.729 C 298.938 54.714,298.830 54.622,298.890 54.525 C 298.951 54.427,298.827 54.377,298.615 54.413 C 298.335 54.461,298.233 54.356,298.244 54.030 C 298.256 53.641,298.191 53.606,297.763 53.769 C 297.401 53.906,297.308 53.892,297.418 53.714 C 297.519 53.551,297.455 53.514,297.225 53.603 C 297.001 53.689,296.802 53.586,296.654 53.309 C 296.519 53.058,296.301 52.933,296.119 53.002 C 295.922 53.078,295.865 53.034,295.961 52.879 C 296.060 52.718,295.995 52.682,295.766 52.770 C 295.563 52.848,295.442 52.805,295.471 52.667 C 295.539 52.347,293.930 51.435,293.548 51.576 C 293.380 51.638,293.310 51.620,293.393 51.537 C 293.477 51.454,293.286 51.215,292.970 51.007 C 292.654 50.798,292.529 50.627,292.691 50.626 C 292.853 50.626,292.932 50.571,292.865 50.504 C 292.798 50.437,292.537 50.494,292.284 50.629 C 291.918 50.825,291.858 50.821,291.988 50.610 C 292.105 50.421,292.050 50.385,291.794 50.483 C 291.582 50.565,291.488 50.537,291.564 50.414 C 291.634 50.301,291.592 50.208,291.471 50.208 C 291.349 50.208,291.250 50.118,291.250 50.007 C 291.250 49.896,291.414 49.858,291.615 49.922 C 291.876 50.006,291.903 49.985,291.712 49.847 C 291.565 49.741,291.127 49.665,290.738 49.678 C 290.349 49.691,290.077 49.628,290.132 49.538 C 290.188 49.448,290.134 49.375,290.012 49.375 C 289.891 49.375,289.792 49.284,289.792 49.173 C 289.792 49.062,289.956 49.024,290.156 49.089 C 290.446 49.182,290.461 49.163,290.226 48.996 C 290.040 48.865,289.746 48.857,289.433 48.976 C 289.108 49.100,288.979 49.093,289.063 48.958 C 289.133 48.843,289.098 48.750,288.985 48.750 C 288.871 48.750,288.718 48.561,288.645 48.330 C 288.572 48.099,288.425 47.964,288.318 48.030 C 288.212 48.096,288.125 48.066,288.125 47.964 C 288.125 47.862,287.783 47.790,287.365 47.804 C 286.821 47.822,286.579 47.732,286.515 47.487 C 286.408 47.075,285.064 46.394,284.745 46.591 C 284.600 46.681,284.580 46.632,284.689 46.455 C 284.813 46.255,284.765 46.216,284.516 46.311 C 284.144 46.454,284.117 46.059,284.479 45.773 C 284.603 45.674,284.561 45.625,284.375 45.650 C 284.203 45.673,283.797 45.582,283.472 45.449 C 283.147 45.315,282.781 45.267,282.659 45.343 C 282.516 45.431,282.497 45.381,282.606 45.205 C 282.728 45.008,282.683 44.965,282.447 45.056 C 282.252 45.130,282.068 45.051,281.995 44.861 C 281.923 44.675,281.736 44.592,281.550 44.663 C 281.373 44.731,281.283 44.699,281.349 44.591 C 281.510 44.332,280.682 43.899,280.380 44.085 C 280.241 44.171,280.201 44.138,280.283 44.006 C 280.417 43.790,279.670 43.407,279.307 43.506 C 279.213 43.531,279.203 43.444,279.284 43.311 C 279.375 43.166,279.324 43.107,279.157 43.163 C 279.005 43.214,278.707 43.082,278.495 42.870 C 278.283 42.658,278.019 42.541,277.909 42.609 C 277.799 42.677,277.708 42.628,277.708 42.500 C 277.708 42.372,277.600 42.334,277.468 42.416 C 277.330 42.501,277.283 42.474,277.359 42.351 C 277.432 42.234,277.075 41.875,276.568 41.554 C 276.060 41.233,275.697 40.886,275.761 40.782 C 275.825 40.679,275.667 40.718,275.411 40.870 C 275.041 41.089,274.926 41.092,274.851 40.884 C 274.799 40.740,274.656 40.684,274.533 40.760 C 274.405 40.840,274.371 40.800,274.454 40.666 C 274.631 40.380,273.416 39.716,273.087 39.920 C 272.939 40.011,272.911 39.970,273.010 39.810 C 273.115 39.639,273.041 39.577,272.781 39.621 C 272.542 39.662,272.419 39.579,272.456 39.402 C 272.494 39.226,272.400 39.160,272.213 39.232 C 272.046 39.296,271.854 39.204,271.786 39.028 C 271.715 38.842,271.528 38.759,271.342 38.830 C 271.165 38.898,271.073 38.867,271.138 38.762 C 271.204 38.657,271.160 38.511,271.042 38.438 C 270.923 38.364,270.880 38.218,270.946 38.111 C 271.015 38.000,270.835 38.006,270.521 38.125 C 270.116 38.279,270.015 38.270,270.126 38.089 C 270.227 37.926,270.163 37.889,269.933 37.978 C 269.727 38.057,269.608 38.014,269.638 37.871 C 269.696 37.591,267.902 36.661,267.624 36.827 C 267.520 36.889,267.496 36.841,267.570 36.722 C 267.748 36.433,266.718 35.769,266.327 35.919 C 266.158 35.984,266.074 35.949,266.141 35.841 C 266.291 35.598,265.482 35.143,265.204 35.315 C 265.092 35.385,265.000 35.272,265.000 35.064 C 265.000 34.709,264.649 34.688,258.976 34.688 C 255.662 34.688,252.955 34.734,252.959 34.792 M262.648 45.414 C 266.258 45.740,269.676 47.471,289.411 58.970 C 298.501 64.266,309.406 70.617,313.646 73.083 C 326.112 80.333,328.195 81.568,329.305 82.366 C 332.433 84.612,331.322 84.527,360.833 84.805 C 377.424 84.962,386.236 85.117,386.408 85.257 C 386.885 85.645,386.675 251.900,386.196 253.125 C 385.370 255.236,383.513 256.989,381.092 257.943 L 379.896 258.414 354.375 258.566 C 282.427 258.996,217.376 259.177,216.727 258.950 C 215.853 258.643,215.767 258.296,215.913 255.654 C 215.981 254.435,216.090 208.391,216.157 153.333 C 216.236 87.216,216.349 52.809,216.489 51.990 C 216.944 49.318,218.797 47.146,221.667 45.921 C 222.560 45.540,223.445 45.516,240.417 45.413 C 250.214 45.354,258.745 45.287,259.375 45.264 C 260.005 45.241,261.478 45.309,262.648 45.414 M224.957 49.460 C 223.627 49.936,222.077 51.068,221.240 52.176 C 219.706 54.209,219.849 44.754,219.677 155.730 L 219.523 255.903 296.480 255.759 C 343.192 255.672,374.247 255.537,375.496 255.415 C 378.801 255.092,381.295 253.555,382.424 251.146 L 382.913 250.104 382.915 169.531 L 382.917 88.958 358.906 88.957 C 342.304 88.956,334.645 88.886,334.083 88.730 C 333.635 88.606,326.510 84.656,318.249 79.953 C 296.116 67.352,273.668 54.585,266.067 50.275 L 264.113 49.167 244.921 49.176 C 229.552 49.183,225.575 49.240,224.957 49.460 M313.360 61.189 C 313.197 61.364,312.919 61.421,312.650 61.335 C 312.263 61.213,312.247 61.232,312.521 61.483 C 312.694 61.641,313.131 62.043,313.493 62.376 C 314.008 62.848,314.214 62.928,314.439 62.742 C 314.597 62.611,314.788 62.565,314.863 62.641 C 314.938 62.716,315.000 62.686,315.000 62.574 C 315.000 62.462,314.713 62.158,314.362 61.899 C 313.891 61.550,313.782 61.359,313.942 61.165 C 314.251 60.793,313.709 60.816,313.360 61.189 M93.255 79.483 C 92.544 80.194,93.122 81.328,94.136 81.209 C 94.869 81.123,95.304 80.277,94.916 79.689 C 94.563 79.154,93.692 79.046,93.255 79.483 M99.877 79.688 C 99.178 80.753,100.670 81.819,101.530 80.869 C 101.978 80.374,101.967 79.939,101.494 79.511 C 100.944 79.014,100.270 79.087,99.877 79.688 M366.711 95.480 C 370.220 97.203,370.234 97.273,370.162 113.043 L 370.104 125.938 369.634 126.817 C 368.935 128.126,368.075 129.012,366.946 129.589 L 365.938 130.104 316.979 130.208 C 290.052 130.266,260.615 130.266,251.563 130.208 L 235.104 130.104 234.095 129.589 C 232.966 129.012,232.107 128.126,231.408 126.817 L 230.938 125.938 230.879 112.937 C 230.814 98.326,230.775 98.751,232.328 96.987 C 233.263 95.925,234.377 95.270,235.697 95.007 C 236.173 94.913,265.578 94.849,301.042 94.865 L 365.521 94.896 366.711 95.480 M365.414 134.706 C 366.980 135.171,368.787 136.979,369.252 138.544 C 369.817 140.447,369.745 167.886,369.171 169.419 C 368.576 171.009,367.695 171.961,366.090 172.751 L 364.695 173.438 300.525 173.370 C 230.543 173.295,235.159 173.382,233.407 172.113 C 231.550 170.768,231.457 169.636,231.612 150.417 L 231.705 138.854 232.219 137.766 C 232.834 136.464,234.060 135.360,235.505 134.804 C 236.999 134.229,363.488 134.134,365.414 134.706 M355.844 178.251 C 356.611 179.018,356.625 180.282,355.875 181.032 L 355.240 181.667 349.375 181.667 L 343.510 181.667 342.901 181.058 C 342.056 180.213,342.060 179.158,342.910 178.308 L 343.528 177.690 349.467 177.751 C 355.183 177.810,355.422 177.829,355.844 178.251 M371.891 178.317 C 372.342 178.768,372.500 179.124,372.500 179.688 C 372.500 180.251,372.342 180.607,371.891 181.058 L 371.282 181.667 365.461 181.667 C 358.974 181.667,358.747 181.619,358.434 180.192 C 357.953 178.002,358.748 177.727,365.589 177.717 L 371.282 177.708 371.891 178.317 M56.380 179.056 C 53.821 179.968,52.531 183.210,53.735 185.699 C 55.466 189.273,60.614 189.331,62.375 185.797 C 64.355 181.823,60.567 177.564,56.380 179.056 M365.626 186.577 C 372.465 188.132,374.802 196.950,369.630 201.684 C 362.352 208.348,351.427 200.259,355.616 191.309 C 357.356 187.589,361.488 185.636,365.626 186.577 M273.191 186.899 C 273.790 187.206,274.365 187.930,274.370 188.385 C 274.373 188.610,274.536 188.750,274.795 188.750 C 275.026 188.750,275.565 189.071,275.993 189.463 L 276.771 190.176 276.771 195.056 C 276.771 200.378,276.691 200.803,275.591 201.372 C 274.725 201.820,237.134 201.812,236.268 201.363 C 235.755 201.098,235.000 199.957,235.000 199.446 C 235.000 199.349,234.717 199.143,234.370 198.990 C 233.219 198.480,233.125 198.014,233.125 192.802 L 233.125 188.083 233.833 187.375 L 234.542 186.667 253.639 186.667 C 267.294 186.667,272.865 186.733,273.191 186.899 M319.875 187.374 C 320.662 187.703,321.250 188.426,321.250 189.066 C 321.250 189.372,321.445 189.555,321.923 189.697 C 323.389 190.131,323.542 190.722,323.542 195.979 C 323.542 201.118,323.447 201.590,322.298 202.184 C 321.382 202.658,284.043 202.662,283.127 202.189 C 282.368 201.796,281.875 201.102,281.874 200.422 C 281.873 200.060,281.684 199.789,281.267 199.551 C 279.963 198.810,279.896 198.510,279.896 193.446 C 279.896 188.343,279.985 187.968,281.344 187.376 C 282.308 186.956,318.871 186.954,319.875 187.374 M289.830 219.382 C 290.253 219.500,290.839 219.881,291.132 220.230 L 291.667 220.865 291.667 229.516 L 291.667 238.167 290.978 238.855 C 289.988 239.846,290.844 239.820,261.458 239.750 C 235.769 239.690,234.877 239.674,234.312 239.292 C 233.128 238.489,233.125 238.466,233.125 229.416 C 233.125 220.035,233.128 220.014,234.799 219.439 C 235.750 219.111,288.658 219.057,289.830 219.382 M362.702 219.642 C 364.161 220.380,364.167 220.422,364.164 229.562 C 364.160 238.572,364.171 238.483,362.935 239.317 L 362.230 239.792 334.855 239.792 C 304.970 239.792,306.771 239.866,305.916 238.604 C 305.544 238.055,305.521 237.527,305.521 229.583 C 305.521 220.284,305.502 220.421,306.853 219.687 C 307.611 219.275,361.890 219.230,362.702 219.642 " stroke="none" fill="#fe1a55" fill-rule="evenodd"></path><path id="path3" d="M75.701 12.727 C 71.243 14.019,69.763 20.272,73.158 23.467 C 75.698 25.856,80.077 25.720,82.305 23.182 C 86.558 18.338,81.883 10.935,75.701 12.727 M90.833 12.684 C 83.505 15.068,85.340 25.663,92.996 25.163 C 99.501 24.738,101.139 15.965,95.249 13.090 C 94.205 12.581,91.824 12.362,90.833 12.684 M105.625 12.695 C 98.423 14.894,100.194 25.611,107.686 25.164 C 113.346 24.826,115.796 18.193,111.723 14.235 C 110.238 12.792,107.539 12.110,105.625 12.695 M94.538 14.073 C 99.621 16.193,98.086 23.857,92.595 23.775 C 85.790 23.673,85.857 13.816,92.663 13.759 C 93.268 13.754,94.112 13.895,94.538 14.073 M79.934 14.394 C 83.033 15.893,83.592 20.349,80.972 22.650 C 77.125 26.028,71.291 22.114,72.900 17.237 C 73.784 14.560,77.323 13.129,79.934 14.394 M109.375 14.601 C 114.571 16.956,112.043 24.735,106.458 23.574 C 100.904 22.419,101.633 14.197,107.292 14.179 C 108.007 14.177,108.790 14.336,109.375 14.601 M38.654 21.676 C 21.548 24.364,17.669 47.188,32.940 55.297 C 44.547 61.461,58.524 53.400,59.104 40.207 C 59.599 28.941,49.671 19.944,38.654 21.676 M44.389 24.066 C 58.812 27.099,61.563 46.536,48.530 53.326 C 35.683 60.019,21.311 46.978,26.735 33.551 C 29.543 26.599,37.109 22.534,44.389 24.066 M235.000 95.824 C 233.625 96.296,232.093 97.825,231.709 99.107 C 231.382 100.199,231.352 124.712,231.676 125.880 C 232.006 127.068,233.106 128.351,234.351 129.002 L 235.464 129.583 239.451 129.548 C 243.203 129.514,243.303 129.504,241.146 129.366 C 239.885 129.286,238.823 129.208,238.784 129.193 C 238.746 129.179,239.779 128.112,241.080 126.823 C 242.381 125.534,247.422 120.421,252.283 115.462 C 257.541 110.097,261.231 106.486,261.393 106.549 C 261.553 106.610,261.667 106.505,261.668 106.296 C 261.668 106.099,262.753 104.859,264.078 103.542 C 265.403 102.224,266.685 100.935,266.927 100.677 C 267.402 100.171,273.995 100.053,282.793 100.393 L 286.107 100.521 283.586 103.073 C 282.199 104.477,280.973 105.625,280.860 105.625 C 280.748 105.625,280.625 105.758,280.588 105.920 C 280.537 106.144,268.443 118.525,258.358 128.679 C 257.424 129.619,257.141 129.562,262.901 129.595 L 267.972 129.623 269.761 127.885 C 270.746 126.928,271.583 126.080,271.623 126.000 C 271.696 125.852,272.744 124.753,277.052 120.308 C 278.387 118.930,281.635 115.566,284.271 112.833 C 286.906 110.100,290.703 106.190,292.708 104.144 L 296.354 100.424 298.333 100.407 C 299.422 100.398,300.382 100.396,300.468 100.403 C 300.553 100.411,300.225 100.825,299.738 101.325 C 299.252 101.824,297.870 103.258,296.667 104.510 C 295.464 105.762,292.323 109.022,289.688 111.755 C 287.052 114.489,284.615 117.021,284.271 117.382 C 281.026 120.793,273.920 128.130,273.385 128.621 C 273.013 128.963,272.708 129.320,272.708 129.413 C 272.708 129.507,280.386 129.583,289.771 129.583 L 306.833 129.583 310.738 125.469 C 312.885 123.206,315.121 120.867,315.707 120.272 C 316.292 119.678,317.615 118.276,318.646 117.157 C 319.677 116.039,321.510 114.088,322.719 112.822 C 323.929 111.557,325.751 109.630,326.769 108.542 C 330.616 104.430,333.807 101.250,334.086 101.250 C 334.245 101.250,334.375 101.077,334.375 100.866 C 334.375 99.872,334.419 99.868,345.104 100.021 C 350.604 100.100,357.018 100.174,359.358 100.186 L 363.612 100.208 362.072 101.823 C 361.224 102.711,359.029 104.994,357.193 106.897 C 355.356 108.800,352.835 111.425,351.590 112.731 C 350.345 114.036,347.378 117.120,344.997 119.583 C 342.616 122.047,339.494 125.281,338.058 126.771 L 335.447 129.479 350.484 129.535 L 365.521 129.590 366.658 129.012 C 369.590 127.520,369.581 127.567,369.580 112.396 L 369.579 99.688 369.093 98.646 C 368.453 97.275,367.179 96.148,365.808 95.741 C 363.940 95.186,236.621 95.267,235.000 95.824 M55.960 178.035 C 52.903 179.155,51.320 182.960,52.673 185.938 C 55.323 191.770,63.941 190.019,63.952 183.646 C 63.959 179.450,59.891 176.594,55.960 178.035 M117.845 178.298 C 117.412 178.776,117.406 179.251,117.827 179.673 C 118.374 180.219,163.118 180.167,163.614 179.619 C 164.086 179.097,164.046 178.627,163.495 178.241 C 162.720 177.698,118.338 177.753,117.845 178.298 M59.702 178.432 C 64.417 179.838,64.810 186.365,60.310 188.543 C 59.028 189.163,57.056 189.112,55.671 188.421 C 49.785 185.488,53.392 176.549,59.702 178.432 M343.333 178.750 C 342.834 179.249,342.799 179.947,343.241 180.579 C 343.563 181.038,343.608 181.042,349.375 181.042 C 355.782 181.042,355.833 181.031,355.833 179.641 C 355.833 178.394,355.534 178.333,349.375 178.333 C 344.028 178.333,343.729 178.354,343.333 178.750 M359.375 178.750 C 358.876 179.249,358.840 179.947,359.283 180.579 C 359.605 181.038,359.650 181.042,365.396 181.042 C 371.774 181.042,371.875 181.021,371.875 179.723 C 371.875 178.385,371.637 178.333,365.417 178.333 C 360.069 178.333,359.771 178.354,359.375 178.750 M117.750 182.958 C 117.612 183.096,117.500 183.405,117.500 183.646 C 117.500 184.614,116.740 184.583,140.764 184.583 L 163.527 184.583 163.764 184.140 C 163.936 183.819,163.939 183.562,163.776 183.203 L 163.551 182.708 140.775 182.708 C 123.339 182.708,117.941 182.767,117.750 182.958 M361.614 187.101 C 355.303 188.589,353.102 196.886,357.856 201.268 C 362.435 205.489,369.999 203.384,371.578 197.451 C 373.207 191.330,367.744 185.656,361.614 187.101 M117.845 187.881 C 117.412 188.359,117.406 188.834,117.827 189.256 C 118.374 189.802,163.118 189.750,163.614 189.202 C 164.086 188.680,164.046 188.210,163.495 187.824 C 162.720 187.281,118.338 187.336,117.845 187.881 M366.101 188.661 C 370.808 190.273,372.165 197.167,368.450 200.591 C 363.986 204.706,356.528 201.326,356.579 195.212 C 356.621 190.245,361.310 187.019,366.101 188.661 M234.860 220.095 C 233.752 220.577,233.750 220.595,233.750 229.479 C 233.750 238.416,233.746 238.387,234.906 238.872 C 236.105 239.373,288.991 239.306,290.000 238.802 C 291.180 238.212,291.225 237.867,291.238 229.375 C 291.250 221.052,291.198 220.657,290.000 220.058 C 289.192 219.654,235.791 219.690,234.860 220.095 M307.053 220.316 C 306.750 220.480,306.399 220.913,306.272 221.276 C 305.960 222.172,305.954 236.978,306.266 237.872 C 306.750 239.262,304.641 239.167,334.905 239.167 L 362.324 239.167 362.933 238.558 L 363.542 237.949 363.542 229.583 L 363.542 221.218 362.933 220.609 L 362.324 220.000 334.964 220.008 C 311.589 220.015,307.524 220.060,307.053 220.316 M103.594 279.323 C 108.951 279.354,117.716 279.354,123.073 279.323 C 128.430 279.292,124.047 279.267,113.333 279.267 C 102.620 279.267,98.237 279.292,103.594 279.323 M259.443 279.323 C 265.840 279.353,276.246 279.353,282.568 279.323 C 288.890 279.292,283.656 279.267,270.938 279.267 C 258.219 279.267,253.046 279.292,259.443 279.323 " stroke="none" fill="#06155c" fill-rule="evenodd"></path><path id="path4" d="M36.650 13.240 C 24.792 15.387,15.940 25.035,14.794 37.060 C 14.524 39.896,14.449 39.792,16.761 39.792 L 18.686 39.792 18.813 42.240 C 19.115 48.045,21.464 53.219,25.565 57.106 C 39.401 70.222,62.343 61.183,63.274 42.248 L 63.394 39.809 64.770 39.748 L 66.146 39.688 66.205 38.229 C 66.288 36.174,65.399 31.175,64.505 28.673 C 60.578 17.686,48.636 11.069,36.650 13.240 M90.419 16.560 C 90.081 16.967,90.299 17.500,90.805 17.500 C 91.297 17.500,91.550 16.924,91.228 16.536 C 90.924 16.170,90.738 16.175,90.419 16.560 M75.038 16.927 C 75.074 17.185,75.245 17.396,75.417 17.396 C 75.589 17.396,75.759 17.185,75.796 16.927 C 75.847 16.566,75.760 16.458,75.417 16.458 C 75.074 16.458,74.986 16.566,75.038 16.927 M104.675 16.687 C 104.491 16.984,105.099 17.592,105.397 17.408 C 105.794 17.163,105.663 16.458,105.221 16.458 C 104.998 16.458,104.753 16.561,104.675 16.687 M45.584 21.675 C 59.556 24.950,64.345 42.703,53.930 52.616 C 44.475 61.616,28.832 58.179,24.200 46.085 C 18.916 32.288,31.172 18.298,45.584 21.675 M35.989 27.101 C 33.847 27.606,30.796 30.079,29.832 32.093 C 27.633 36.686,31.741 38.920,36.535 35.739 C 41.935 32.154,41.533 25.794,35.989 27.101 M39.115 28.448 C 40.862 30.438,37.535 35.069,33.564 36.173 C 29.643 37.263,28.835 33.748,32.223 30.343 C 34.637 27.917,37.869 27.028,39.115 28.448 M39.365 38.906 C 37.445 40.622,39.411 43.710,41.725 42.612 C 43.006 42.004,43.434 40.614,42.707 39.422 C 41.967 38.207,40.416 37.968,39.365 38.906 M41.800 39.698 C 42.693 40.591,42.096 41.944,40.811 41.944 C 39.518 41.944,38.968 40.597,39.886 39.678 C 40.541 39.024,41.132 39.030,41.800 39.698 M14.848 42.083 C 14.848 42.599,14.889 42.810,14.939 42.552 C 14.988 42.294,14.988 41.872,14.939 41.615 C 14.889 41.357,14.848 41.568,14.848 42.083 M15.250 44.688 C 15.250 44.917,15.325 45.339,15.417 45.625 C 15.549 46.037,15.583 46.059,15.583 45.729 C 15.583 45.500,15.508 45.078,15.417 44.792 C 15.285 44.379,15.250 44.358,15.250 44.688 M15.657 46.458 C 15.657 46.630,15.783 47.099,15.938 47.500 C 16.092 47.901,16.218 48.089,16.218 47.917 C 16.218 47.745,16.092 47.276,15.938 46.875 C 15.783 46.474,15.657 46.286,15.657 46.458 M16.378 48.750 C 17.124 51.726,21.319 57.600,24.451 60.053 C 24.925 60.424,24.270 59.697,22.996 58.437 C 20.021 55.495,18.874 53.786,16.494 48.750 L 16.248 48.229 16.378 48.750 M25.417 60.738 C 25.417 61.083,30.469 63.926,31.667 64.255 C 31.953 64.334,31.326 63.979,30.273 63.467 C 29.220 62.955,27.697 62.108,26.888 61.585 C 26.079 61.062,25.417 60.680,25.417 60.738 M32.813 64.695 C 33.156 64.852,33.578 64.978,33.750 64.975 C 33.922 64.971,33.734 64.842,33.333 64.688 C 32.382 64.321,32.008 64.327,32.813 64.695 M35.417 65.417 C 35.703 65.508,36.172 65.582,36.458 65.580 C 36.926 65.576,36.916 65.560,36.354 65.417 C 35.473 65.192,34.716 65.192,35.417 65.417 M37.450 65.772 C 37.709 65.822,38.084 65.820,38.284 65.768 C 38.483 65.716,38.271 65.675,37.813 65.678 C 37.354 65.680,37.191 65.723,37.450 65.772 M39.535 65.984 C 39.909 66.031,40.472 66.030,40.785 65.982 C 41.098 65.935,40.792 65.897,40.104 65.898 C 39.417 65.899,39.161 65.938,39.535 65.984 M37.813 77.021 C 34.840 77.416,31.647 79.658,30.318 82.282 C 29.040 84.805,29.129 82.606,28.948 116.146 C 28.857 132.990,28.739 153.070,28.685 160.770 L 28.589 174.769 29.080 175.831 C 30.802 179.547,37.805 185.473,46.074 190.210 C 50.240 192.597,50.192 192.585,55.417 192.595 C 81.898 192.649,161.282 192.045,162.264 191.782 C 165.818 190.832,168.610 188.055,169.606 184.479 C 170.125 182.616,170.029 86.213,169.506 84.317 C 168.533 80.788,165.499 77.937,161.902 77.175 C 160.603 76.900,39.853 76.749,37.813 77.021 M94.857 78.358 C 96.850 79.377,96.184 82.292,93.958 82.292 C 93.280 82.292,92.962 82.160,92.484 81.683 C 90.848 80.047,92.803 77.307,94.857 78.358 M101.538 78.324 C 103.524 79.079,102.911 82.292,100.781 82.292 C 98.718 82.292,97.820 80.263,99.250 78.833 C 99.987 78.096,100.587 77.963,101.538 78.324 M165.642 87.451 L 166.250 88.132 166.250 130.954 C 166.250 162.084,166.186 173.902,166.017 174.232 C 165.371 175.497,167.375 175.407,139.633 175.412 C 121.125 175.415,114.268 175.353,113.990 175.180 C 113.710 175.005,113.273 175.003,112.310 175.172 C 111.397 175.333,99.581 175.405,72.689 175.413 C 30.958 175.425,33.514 175.498,32.957 174.277 C 32.620 173.537,32.594 88.520,32.930 87.892 C 33.648 86.549,27.260 86.661,99.757 86.719 L 165.034 86.771 165.642 87.451 M60.269 177.710 C 64.462 179.279,65.723 184.474,62.711 187.770 C 58.870 191.972,51.885 189.371,51.877 183.735 C 51.870 179.178,56.092 176.147,60.269 177.710 M163.667 177.868 C 164.657 178.529,164.384 179.860,163.186 180.207 C 161.706 180.636,118.017 180.398,117.577 179.958 C 117.099 179.480,117.117 178.351,117.609 177.991 C 118.036 177.680,163.204 177.558,163.667 177.868 M163.753 182.669 C 164.040 182.901,164.219 183.276,164.219 183.646 C 164.219 185.093,165.848 185.000,140.617 185.000 L 117.947 185.000 117.515 184.451 C 117.278 184.149,117.083 183.787,117.083 183.646 C 117.083 183.505,117.278 183.143,117.515 182.841 L 117.947 182.292 140.617 182.292 C 162.185 182.292,163.310 182.310,163.753 182.669 M233.942 187.484 L 233.333 188.093 233.333 192.889 C 233.333 198.345,233.399 198.570,235.104 198.964 C 236.133 199.202,270.731 199.210,272.175 198.973 C 274.114 198.655,274.167 198.494,274.167 192.889 L 274.167 188.093 273.558 187.484 L 272.949 186.875 253.750 186.875 L 234.551 186.875 233.942 187.484 M163.685 187.455 C 164.554 188.008,164.331 189.413,163.319 189.766 C 162.295 190.123,118.628 190.090,117.920 189.732 C 117.172 189.353,116.924 188.503,117.366 187.829 L 117.718 187.292 140.578 187.295 C 153.151 187.297,163.549 187.369,163.685 187.455 M281.537 187.591 C 280.252 188.151,280.208 188.346,280.208 193.604 L 280.208 198.365 280.821 198.978 L 281.433 199.590 300.734 199.534 L 320.036 199.479 320.539 198.895 C 321.038 198.314,321.042 198.280,321.042 193.576 C 321.042 188.320,321.000 188.139,319.667 187.582 C 318.649 187.157,282.515 187.165,281.537 187.591 M359.278 192.075 C 358.534 192.898,359.420 194.149,360.547 193.866 C 360.827 193.796,361.160 193.511,361.287 193.232 C 361.820 192.061,360.158 191.103,359.278 192.075 " stroke="none" fill="#fff9f1" fill-rule="evenodd"></path><path id="path5" d="M38.095 24.065 C 27.694 26.137,22.358 38.172,27.752 47.396 C 33.921 57.946,49.555 57.531,55.193 46.667 C 61.246 35.003,51.023 21.490,38.095 24.065 M38.743 27.147 C 41.728 28.175,40.452 33.138,36.535 35.739 C 30.386 39.820,26.450 35.005,31.655 29.769 C 33.987 27.423,36.666 26.432,38.743 27.147 M35.893 28.000 C 31.310 29.488,28.187 35.294,31.444 36.270 C 34.409 37.159,39.573 33.021,39.581 29.751 C 39.586 28.142,37.908 27.345,35.893 28.000 M41.757 38.536 C 42.340 38.758,43.123 39.876,43.124 40.489 C 43.129 42.706,40.099 43.663,38.937 41.812 C 37.748 39.915,39.631 37.728,41.757 38.536 M39.886 39.678 C 38.968 40.597,39.518 41.944,40.811 41.944 C 42.096 41.944,42.693 40.591,41.800 39.698 C 41.132 39.030,40.541 39.024,39.886 39.678 M64.770 39.737 L 63.394 39.809 63.274 42.248 C 62.343 61.183,39.401 70.222,25.565 57.106 C 21.464 53.219,19.115 48.045,18.813 42.240 L 18.686 39.792 16.718 39.792 L 14.749 39.792 14.892 41.302 C 16.815 61.590,38.805 72.597,54.759 61.258 C 60.329 57.298,64.240 51.312,65.596 44.671 C 65.974 42.817,66.376 39.520,66.211 39.624 C 66.175 39.647,65.527 39.697,64.770 39.737 M33.815 87.072 C 33.450 87.295,33.052 87.664,32.930 87.892 C 32.594 88.520,32.620 173.537,32.957 174.277 C 33.514 175.498,30.958 175.425,72.689 175.413 C 99.581 175.405,111.397 175.333,112.310 175.172 C 113.273 175.003,113.710 175.005,113.990 175.180 C 114.268 175.353,121.125 175.415,139.633 175.412 C 167.375 175.407,165.371 175.497,166.017 174.232 C 166.186 173.902,166.250 162.084,166.250 130.954 L 166.250 88.132 165.642 87.451 L 165.034 86.771 99.757 86.719 C 35.408 86.668,34.470 86.673,33.815 87.072 M235.814 135.117 C 234.520 135.513,233.080 136.823,232.528 138.107 C 232.086 139.135,232.080 139.313,232.039 154.210 L 231.997 169.273 232.478 170.267 C 232.743 170.814,233.254 171.484,233.615 171.755 C 235.191 172.941,230.586 172.859,300.417 172.944 L 364.688 173.021 365.789 172.523 C 366.433 172.232,367.235 171.634,367.720 171.083 C 369.207 169.394,369.175 169.794,369.116 153.433 L 369.063 138.854 368.451 137.750 C 367.738 136.463,366.565 135.526,365.133 135.101 C 363.629 134.654,237.277 134.670,235.814 135.117 M35.729 200.084 C 27.004 202.850,26.088 214.524,34.286 218.469 C 43.561 222.932,52.540 211.814,46.330 203.554 C 44.062 200.536,39.260 198.964,35.729 200.084 " stroke="none" fill="#01d7fc" fill-rule="evenodd"></path><path id="path6" d="M199.306 0.139 C 199.229 0.215,199.167 58.575,199.167 129.826 L 199.167 259.375 196.823 259.383 C 193.804 259.393,189.222 260.268,187.182 261.222 C 186.406 261.585,185.750 261.857,185.724 261.827 C 185.698 261.796,185.614 247.615,185.538 230.313 C 184.943 94.819,184.797 50.675,184.920 43.541 C 185.045 36.280,185.024 35.279,184.742 35.045 C 184.391 34.754,136.680 35.060,129.375 35.400 C 125.124 35.598,124.348 35.833,121.170 37.888 C 119.264 39.120,117.247 40.303,83.505 59.965 C 66.580 69.827,60.966 72.890,57.604 74.096 C 56.086 74.640,50.642 74.777,30.219 74.784 L 10.000 74.792 10.000 51.993 C 10.000 29.925,9.953 28.125,9.380 28.125 C 9.104 28.125,9.097 31.529,9.371 32.485 C 9.506 32.958,9.504 33.282,9.364 33.451 C 9.092 33.779,9.117 47.861,9.390 48.030 C 9.506 48.102,9.583 53.567,9.583 61.627 L 9.583 75.104 31.823 75.055 C 59.230 74.994,56.496 75.301,64.271 71.408 C 67.174 69.955,118.994 39.784,121.534 38.069 C 123.813 36.530,125.260 36.010,127.812 35.815 C 130.190 35.633,164.949 35.208,177.458 35.208 L 184.591 35.208 184.535 40.042 L 184.479 44.876 180.208 44.886 L 175.938 44.896 175.938 89.167 C 175.938 113.516,175.966 162.078,176.001 197.083 L 176.064 260.729 175.642 261.011 C 175.132 261.352,23.501 260.747,21.912 260.398 C 19.080 259.776,16.777 257.613,15.956 254.806 C 15.656 253.780,15.625 245.773,15.625 169.341 L 15.625 85.008 15.156 84.891 C 14.898 84.827,13.656 84.802,12.396 84.835 L 10.104 84.896 9.996 125.000 C 9.937 147.057,9.890 185.776,9.892 211.042 L 9.896 256.979 10.503 258.719 C 11.944 262.846,14.663 265.443,18.750 266.597 C 20.315 267.039,26.252 267.061,91.771 266.877 C 191.081 266.598,184.839 266.690,184.607 265.512 C 183.951 262.164,188.899 259.785,196.667 259.713 L 199.479 259.688 199.583 129.844 C 199.641 58.430,199.633 -0.000,199.566 -0.000 C 199.499 -0.000,199.382 0.063,199.306 0.139 M209.046 7.604 C 209.046 9.896,209.076 10.862,209.114 9.751 C 209.151 8.640,209.151 6.765,209.114 5.584 C 209.077 4.403,209.046 5.313,209.046 7.604 M75.482 12.249 C 67.954 14.939,69.655 25.743,77.604 25.725 C 83.657 25.711,86.698 18.998,82.803 14.246 C 81.215 12.307,77.871 11.396,75.482 12.249 M90.547 12.203 C 83.298 14.524,84.392 25.173,91.941 25.779 C 98.362 26.294,101.989 18.566,97.469 14.001 C 95.692 12.207,92.845 11.467,90.547 12.203 M105.390 12.188 C 97.718 14.651,99.359 25.729,107.396 25.729 C 114.817 25.729,117.008 15.643,110.259 12.553 C 108.827 11.897,106.775 11.744,105.390 12.188 M80.567 12.944 C 86.826 15.928,84.564 25.514,77.604 25.500 C 72.718 25.490,69.541 20.578,71.547 16.136 C 73.138 12.613,77.003 11.245,80.567 12.944 M94.880 12.637 C 99.316 14.192,100.605 20.103,97.259 23.550 C 94.828 26.056,90.756 26.180,88.142 23.830 C 82.670 18.910,87.915 10.197,94.880 12.637 M110.150 12.820 C 114.294 14.665,115.296 20.329,112.053 23.572 C 107.839 27.786,100.745 24.826,100.748 18.854 C 100.750 13.932,105.623 10.805,110.150 12.820 M92.138 14.108 C 92.455 14.156,92.924 14.154,93.180 14.105 C 93.436 14.056,93.177 14.016,92.604 14.018 C 92.031 14.019,91.822 14.060,92.138 14.108 M76.042 14.440 C 74.337 14.981,72.914 17.089,72.922 19.063 C 72.943 24.107,80.609 25.257,82.054 20.433 C 83.209 16.576,79.854 13.232,76.042 14.440 M79.456 14.966 C 81.995 17.201,79.555 22.500,75.987 22.500 C 72.836 22.500,72.199 17.197,75.120 15.283 C 76.547 14.348,78.584 14.199,79.456 14.966 M54.479 16.198 C 54.594 16.309,55.344 16.893,56.146 17.498 C 62.660 22.405,66.062 29.253,66.309 37.950 C 66.337 38.928,66.421 39.428,66.528 39.240 C 66.929 38.532,65.846 31.689,64.868 28.750 C 63.936 25.949,62.026 22.797,59.746 20.302 C 57.926 18.309,59.434 19.400,61.897 21.858 C 79.127 39.051,65.636 68.990,41.562 66.985 C 39.733 66.833,39.112 66.461,40.677 66.455 C 41.164 66.453,41.703 66.361,41.875 66.250 C 42.090 66.111,41.637 66.047,40.417 66.044 C 27.074 66.014,16.195 55.568,14.595 41.250 L 14.397 39.479 14.475 41.563 C 14.797 50.182,20.745 59.184,28.902 63.397 C 30.622 64.286,34.769 65.833,35.430 65.833 C 35.580 65.833,35.899 66.018,36.139 66.243 C 37.322 67.355,44.793 67.813,48.533 67.003 C 64.738 63.494,74.104 47.088,68.707 31.667 C 66.499 25.360,61.464 19.589,55.625 16.674 C 54.880 16.302,54.365 16.088,54.479 16.198 M209.044 31.458 C 209.044 33.464,209.075 34.284,209.113 33.281 C 209.152 32.279,209.152 30.638,209.113 29.635 C 209.075 28.633,209.044 29.453,209.044 31.458 M208.697 35.350 C 208.336 35.998,208.527 264.550,208.889 264.657 C 209.321 264.784,272.176 264.976,338.438 265.053 L 382.813 265.104 384.446 264.639 C 388.282 263.547,390.831 261.618,392.290 258.704 C 392.749 257.786,393.125 256.900,393.125 256.734 C 393.125 256.569,393.219 256.492,393.333 256.563 C 393.448 256.633,393.563 256.569,393.589 256.419 C 393.615 256.269,393.688 259.005,393.750 262.500 L 393.863 268.854 393.908 261.979 C 393.961 253.727,393.852 253.221,392.752 256.597 C 391.396 260.754,388.813 263.100,384.271 264.302 C 382.687 264.721,336.159 264.772,247.344 264.451 L 211.875 264.324 211.875 150.003 L 211.875 35.683 210.677 35.569 C 210.018 35.507,209.325 35.393,209.136 35.318 C 208.947 35.242,208.749 35.257,208.697 35.350 M22.985 39.479 C 22.986 40.281,23.024 40.584,23.069 40.152 C 23.114 39.719,23.113 39.063,23.067 38.693 C 23.021 38.323,22.984 38.677,22.985 39.479 M134.896 45.015 C 127.103 45.226,127.375 45.132,116.613 51.292 C 103.538 58.777,73.496 75.951,72.917 76.273 C 72.489 76.511,69.386 76.581,55.521 76.667 C 46.240 76.724,65.927 76.734,99.271 76.688 C 146.367 76.624,160.228 76.662,161.386 76.860 C 163.183 77.166,165.075 78.026,166.209 79.050 C 166.710 79.503,167.077 79.705,167.127 79.557 C 167.278 79.103,170.014 80.649,171.320 81.927 C 171.993 82.586,172.581 83.125,172.626 83.125 C 172.671 83.125,172.706 74.992,172.703 65.052 C 172.698 47.256,172.633 45.346,172.020 44.956 C 171.718 44.764,142.469 44.811,134.896 45.015 M240.417 45.413 C 223.445 45.516,222.560 45.540,221.667 45.921 C 218.797 47.146,216.944 49.318,216.489 51.990 C 216.349 52.809,216.236 87.216,216.157 153.333 C 216.090 208.391,215.981 254.435,215.913 255.654 C 215.767 258.296,215.853 258.643,216.727 258.950 C 217.376 259.177,282.427 258.996,354.375 258.566 L 379.896 258.414 381.092 257.943 C 383.513 256.989,385.370 255.236,386.196 253.125 C 386.675 251.900,386.885 85.645,386.408 85.257 C 386.236 85.117,377.424 84.962,360.833 84.805 C 331.322 84.527,332.433 84.612,329.305 82.366 C 328.195 81.568,326.112 80.333,313.646 73.083 C 309.406 70.617,298.501 64.266,289.411 58.970 C 266.948 45.882,265.136 45.055,259.375 45.264 C 258.745 45.287,250.214 45.354,240.417 45.413 M264.896 46.068 C 269.985 48.121,272.974 49.774,297.813 64.266 C 302.167 66.807,310.690 71.774,316.753 75.305 C 322.816 78.836,328.488 82.208,329.357 82.799 C 332.367 84.847,336.679 85.217,357.414 85.210 C 360.861 85.209,368.760 85.271,374.967 85.347 L 386.252 85.485 386.199 168.940 L 386.146 252.396 385.689 253.386 C 384.720 255.483,382.318 257.374,379.947 257.905 C 379.041 258.108,343.611 258.319,252.604 258.661 C 222.765 258.773,216.924 258.749,216.640 258.512 C 216.333 258.256,216.388 117.002,216.717 60.724 L 216.771 51.553 217.456 50.162 C 218.536 47.967,220.516 46.481,223.125 45.905 C 225.078 45.474,263.798 45.625,264.896 46.068 M225.183 49.037 C 222.792 49.682,220.473 51.911,219.752 54.259 C 219.400 55.408,219.117 255.665,219.468 256.015 C 219.933 256.481,375.592 255.987,377.396 255.514 C 379.749 254.897,381.947 253.123,382.830 251.127 L 383.333 249.988 383.333 169.369 C 383.333 125.029,383.310 88.728,383.281 88.701 C 383.253 88.674,372.120 88.604,358.542 88.545 L 333.854 88.438 323.750 82.682 C 318.193 79.517,310.927 75.381,307.604 73.492 C 304.281 71.603,293.406 65.418,283.438 59.748 C 273.469 54.077,265.012 49.283,264.646 49.094 C 263.769 48.641,226.849 48.589,225.183 49.037 M266.067 50.275 C 273.668 54.585,296.116 67.352,318.249 79.953 C 326.510 84.656,333.635 88.606,334.083 88.730 C 334.645 88.886,342.304 88.956,358.906 88.957 L 382.917 88.958 382.915 169.531 L 382.913 250.104 382.424 251.146 C 381.295 253.555,378.801 255.092,375.496 255.415 C 374.247 255.537,343.192 255.672,296.480 255.759 L 219.523 255.903 219.677 155.730 C 219.849 44.754,219.706 54.209,221.240 52.176 C 222.077 51.068,223.627 49.936,224.957 49.460 C 225.575 49.240,229.552 49.183,244.921 49.176 L 264.113 49.167 266.067 50.275 M28.229 52.292 C 28.793 52.865,29.302 53.333,29.359 53.333 C 29.417 53.333,29.002 52.865,28.438 52.292 C 27.873 51.719,27.365 51.250,27.307 51.250 C 27.250 51.250,27.665 51.719,28.229 52.292 M31.971 79.844 L 30.938 80.938 32.031 79.904 C 33.048 78.943,33.221 78.750,33.065 78.750 C 33.032 78.750,32.540 79.242,31.971 79.844 M93.438 78.999 C 92.512 79.524,92.429 80.583,93.262 81.239 C 94.598 82.290,96.112 80.468,94.905 79.261 C 94.341 78.697,94.059 78.647,93.438 78.999 M99.924 79.182 C 98.912 79.978,99.442 81.510,100.729 81.510 C 102.016 81.510,102.546 79.978,101.534 79.182 C 101.232 78.944,100.870 78.750,100.729 78.750 C 100.588 78.750,100.226 78.944,99.924 79.182 M94.916 79.689 C 95.139 80.026,95.142 80.210,94.935 80.627 C 94.460 81.586,92.917 81.266,92.917 80.208 C 92.917 79.217,94.358 78.843,94.916 79.689 M101.494 79.511 C 101.967 79.939,101.978 80.374,101.530 80.869 C 100.670 81.819,99.178 80.753,99.877 79.688 C 100.270 79.087,100.944 79.014,101.494 79.511 M29.092 84.685 C 28.982 84.972,28.327 85.012,23.910 85.000 C 21.129 84.992,18.737 84.989,18.594 84.993 C 18.386 84.999,18.333 101.828,18.333 168.430 L 18.333 251.859 18.765 253.012 C 19.557 255.130,21.755 257.065,24.066 257.678 C 24.940 257.910,171.525 258.675,172.413 258.452 C 172.665 258.389,172.904 258.219,172.946 258.075 C 173.097 257.546,172.897 190.208,172.744 190.208 C 172.657 190.208,172.028 190.747,171.345 191.406 C 168.129 194.510,170.149 194.316,139.479 194.473 C 125.156 194.547,100.480 194.688,84.642 194.788 C 64.815 194.914,55.602 194.903,55.059 194.754 C 53.823 194.414,51.227 193.122,51.358 192.911 C 51.422 192.806,51.214 192.664,50.894 192.596 C 47.041 191.769,36.194 184.455,31.627 179.604 C 28.918 176.726,28.439 175.690,28.438 172.708 C 28.430 135.363,28.867 85.582,29.208 84.930 C 29.319 84.720,29.366 84.505,29.313 84.452 C 29.261 84.400,29.161 84.505,29.092 84.685 M235.697 95.007 C 234.377 95.270,233.263 95.925,232.328 96.987 C 230.775 98.751,230.814 98.326,230.879 112.937 L 230.938 125.938 231.408 126.817 C 232.107 128.126,232.966 129.012,234.095 129.589 L 235.104 130.104 251.563 130.208 C 260.615 130.266,290.052 130.266,316.979 130.208 L 365.938 130.104 366.946 129.589 C 368.075 129.012,368.935 128.126,369.634 126.817 L 370.104 125.938 370.162 113.043 C 370.234 97.273,370.220 97.203,366.711 95.480 L 365.521 94.896 301.042 94.865 C 265.578 94.849,236.173 94.913,235.697 95.007 M366.612 95.681 C 367.750 96.303,368.750 97.308,369.336 98.419 L 369.896 99.479 369.957 112.051 C 370.032 127.348,369.995 127.554,366.868 129.271 L 365.729 129.896 300.521 129.896 L 235.313 129.896 234.167 129.250 C 232.777 128.466,231.780 127.224,231.348 125.740 C 230.833 123.967,230.982 99.828,231.515 98.693 C 232.232 97.168,233.694 95.864,235.207 95.402 C 236.478 95.014,365.894 95.288,366.612 95.681 M8.847 117.500 C 8.847 123.516,8.874 125.977,8.906 122.969 C 8.939 119.961,8.939 115.039,8.906 112.031 C 8.874 109.023,8.847 111.484,8.847 117.500 M8.850 146.979 C 8.850 156.833,8.875 160.834,8.906 155.870 C 8.937 150.905,8.937 142.843,8.906 137.953 C 8.875 133.063,8.850 137.125,8.850 146.979 M235.505 134.804 C 234.060 135.360,232.834 136.464,232.219 137.766 L 231.705 138.854 231.612 150.417 C 231.457 169.636,231.550 170.768,233.407 172.113 C 235.159 173.382,230.543 173.295,300.525 173.370 L 364.695 173.438 366.090 172.751 C 367.695 171.961,368.576 171.009,369.171 169.419 C 369.745 167.886,369.817 140.447,369.252 138.544 C 368.787 136.979,366.980 135.171,365.414 134.706 C 363.488 134.134,236.999 134.229,235.505 134.804 M365.528 135.139 C 366.878 135.599,368.359 137.080,368.819 138.430 C 369.333 139.937,369.349 167.932,368.837 169.434 C 368.430 170.628,367.153 171.978,365.866 172.572 L 364.896 173.021 300.948 173.074 C 244.135 173.122,236.861 173.092,235.756 172.809 C 234.071 172.377,233.228 171.812,232.550 170.659 L 231.979 169.688 231.927 154.446 L 231.875 139.204 232.552 137.902 C 233.265 136.531,234.575 135.405,235.908 135.019 C 237.266 134.626,364.367 134.743,365.528 135.139 M342.910 178.308 C 342.060 179.158,342.056 180.213,342.901 181.058 L 343.510 181.667 349.375 181.667 L 355.240 181.667 355.875 181.032 C 356.434 180.473,356.497 180.294,356.396 179.543 C 356.164 177.811,356.201 177.821,349.467 177.751 L 343.528 177.690 342.910 178.308 M359.352 178.021 C 358.205 178.644,358.069 180.431,359.107 181.247 C 359.612 181.645,359.943 181.667,365.461 181.667 L 371.282 181.667 371.891 181.058 C 372.342 180.607,372.500 180.251,372.500 179.688 C 372.500 179.124,372.342 178.768,371.891 178.317 L 371.282 177.708 365.589 177.717 C 361.078 177.723,359.783 177.786,359.352 178.021 M355.717 178.588 C 356.192 179.266,356.134 180.477,355.603 180.957 C 355.194 181.328,354.776 181.354,349.375 181.354 C 342.756 181.354,342.708 181.342,342.708 179.724 C 342.708 178.102,342.612 178.125,349.395 178.125 C 355.357 178.125,355.395 178.128,355.717 178.588 M371.780 178.552 C 372.383 179.218,372.289 180.365,371.582 180.974 L 370.997 181.477 365.271 181.416 L 359.546 181.354 359.148 180.862 C 358.623 180.214,358.632 179.076,359.167 178.542 C 359.822 177.887,371.186 177.896,371.780 178.552 M57.151 178.562 C 54.161 179.115,52.241 182.298,53.200 185.112 C 54.683 189.465,60.426 190.006,62.608 185.998 C 64.645 182.255,61.364 177.783,57.151 178.562 M59.613 178.992 C 62.369 179.817,63.709 183.120,62.375 185.797 C 60.122 190.317,53.230 188.612,53.278 183.546 C 53.309 180.276,56.423 178.036,59.613 178.992 M361.667 186.535 C 357.174 187.517,353.998 192.108,354.766 196.510 C 356.018 203.685,364.297 206.567,369.630 201.684 C 376.221 195.651,370.423 184.622,361.667 186.535 M367.135 187.371 C 375.243 191.267,372.970 203.324,364.053 203.714 C 353.872 204.159,351.444 190.158,361.146 186.947 C 362.601 186.466,365.708 186.686,367.135 187.371 M166.864 189.323 L 166.146 190.104 166.927 189.386 C 167.357 188.991,167.708 188.640,167.708 188.605 C 167.708 188.446,167.532 188.596,166.864 189.323 M274.375 189.043 C 274.375 189.226,274.520 189.298,274.761 189.235 C 274.987 189.176,275.398 189.349,275.751 189.653 L 276.354 190.172 276.417 195.091 L 276.480 200.011 275.860 200.630 L 275.240 201.250 255.868 201.250 L 236.495 201.250 235.941 200.591 C 235.616 200.205,235.427 199.773,235.486 199.549 C 235.548 199.312,235.475 199.167,235.293 199.167 C 234.630 199.167,235.407 200.918,236.268 201.363 C 237.134 201.812,274.725 201.820,275.591 201.372 C 276.691 200.803,276.771 200.378,276.771 195.056 L 276.771 190.176 275.993 189.463 C 275.196 188.733,274.375 188.520,274.375 189.043 M321.250 189.792 C 321.250 189.906,321.442 190.000,321.677 190.000 C 321.911 190.000,322.333 190.248,322.614 190.551 L 323.125 191.103 323.125 195.984 L 323.125 200.865 322.516 201.474 L 321.907 202.083 302.651 202.083 L 283.394 202.083 282.843 201.572 C 282.333 201.100,282.190 200.716,282.276 200.052 C 282.295 199.909,282.212 199.792,282.092 199.792 C 281.761 199.792,281.833 200.890,282.200 201.413 C 282.991 202.542,282.191 202.500,302.708 202.500 C 323.542 202.500,322.552 202.560,323.226 201.257 C 323.685 200.369,323.689 191.722,323.230 190.836 C 322.741 189.889,321.250 189.103,321.250 189.792 M158.073 192.237 C 158.674 192.279,159.659 192.279,160.260 192.237 C 160.862 192.195,160.370 192.160,159.167 192.160 C 157.964 192.160,157.471 192.195,158.073 192.237 M106.495 192.448 C 111.156 192.479,118.843 192.479,123.578 192.448 C 128.313 192.417,124.500 192.391,115.104 192.391 C 105.708 192.391,101.834 192.417,106.495 192.448 M64.544 192.656 C 66.184 192.691,68.809 192.691,70.377 192.656 C 71.946 192.620,70.604 192.591,67.396 192.592 C 64.188 192.592,62.904 192.621,64.544 192.656 M73.700 192.647 C 73.959 192.697,74.334 192.695,74.534 192.643 C 74.733 192.591,74.521 192.550,74.063 192.553 C 73.604 192.555,73.441 192.598,73.700 192.647 M54.228 192.863 C 55.122 192.903,56.528 192.902,57.353 192.863 C 58.179 192.823,57.448 192.791,55.729 192.792 C 54.010 192.792,53.335 192.824,54.228 192.863 M321.042 197.993 C 321.042 198.149,320.845 198.548,320.605 198.878 L 320.168 199.479 320.709 198.895 C 321.188 198.378,321.434 197.708,321.146 197.708 C 321.089 197.708,321.042 197.836,321.042 197.993 M40.938 199.808 C 49.475 202.081,53.981 209.349,50.830 215.764 C 47.917 221.695,41.195 223.240,35.155 219.366 C 32.079 217.393,31.853 217.224,30.973 216.245 C 24.482 209.026,31.581 197.316,40.938 199.808 M291.927 199.740 C 296.711 199.771,304.539 199.771,309.323 199.740 C 314.107 199.708,310.193 199.683,300.625 199.683 C 291.057 199.683,287.143 199.708,291.927 199.740 M318.594 199.727 C 318.794 199.779,319.122 199.779,319.323 199.727 C 319.523 199.675,319.359 199.632,318.958 199.632 C 318.557 199.632,318.393 199.675,318.594 199.727 M76.590 207.631 C 77.447 208.038,77.755 208.542,77.907 209.786 C 77.991 210.477,78.142 210.778,78.488 210.950 C 79.928 211.666,80.293 213.206,79.254 214.182 L 78.716 214.688 69.792 214.688 L 60.867 214.688 60.332 214.185 C 60.039 213.909,59.741 213.381,59.672 213.013 C 59.591 212.580,59.368 212.260,59.044 212.113 C 57.301 211.319,57.296 208.751,59.035 207.691 C 59.963 207.125,75.413 207.072,76.590 207.631 M103.268 207.514 C 105.265 208.271,105.660 210.410,104.073 211.875 L 103.509 212.396 95.244 212.449 C 86.335 212.505,86.371 212.509,85.546 211.397 C 84.638 210.175,85.168 208.428,86.681 207.657 C 87.537 207.221,102.161 207.095,103.268 207.514 M106.661 211.453 C 107.231 212.023,107.387 212.809,107.078 213.556 C 106.560 214.804,106.506 214.811,96.854 214.746 L 88.089 214.688 87.575 214.091 C 86.537 212.883,86.421 212.902,95.208 212.855 C 103.984 212.808,104.145 212.786,104.950 211.470 C 105.284 210.924,106.124 210.915,106.661 211.453 M234.799 219.439 C 233.128 220.014,233.125 220.035,233.125 229.416 C 233.125 238.466,233.128 238.489,234.312 239.292 C 234.877 239.674,235.769 239.690,261.458 239.750 C 290.844 239.820,289.988 239.846,290.978 238.855 L 291.667 238.167 291.667 229.516 L 291.667 220.865 291.132 220.230 C 290.839 219.881,290.253 219.500,289.830 219.382 C 288.658 219.057,235.750 219.111,234.799 219.439 M306.853 219.687 C 305.502 220.421,305.521 220.284,305.521 229.583 C 305.521 237.527,305.544 238.055,305.916 238.604 C 306.771 239.866,304.970 239.792,334.855 239.792 L 362.230 239.792 362.935 239.317 C 364.171 238.483,364.160 238.572,364.164 229.562 C 364.167 220.422,364.161 220.380,362.702 219.642 C 361.890 219.230,307.611 219.275,306.853 219.687 M290.674 220.191 L 291.354 220.799 291.354 229.479 L 291.354 238.159 290.674 238.767 L 289.993 239.375 262.591 239.375 C 232.206 239.375,234.238 239.471,233.629 238.014 C 233.245 237.095,233.192 222.134,233.569 221.053 C 234.122 219.467,231.799 219.585,262.549 219.584 L 289.993 219.583 290.674 220.191 M362.500 219.948 C 363.934 220.664,363.958 220.823,363.958 229.583 C 363.958 238.343,363.934 238.502,362.500 239.218 C 361.489 239.723,308.397 239.789,307.195 239.287 C 305.844 238.723,305.833 238.645,305.833 229.583 C 305.833 220.568,305.849 220.454,307.149 219.888 C 308.289 219.392,361.503 219.450,362.500 219.948 M8.642 245.208 C 8.642 257.411,8.667 262.404,8.698 256.302 C 8.729 250.201,8.729 240.216,8.698 234.115 C 8.667 228.013,8.642 233.005,8.642 245.208 M96.257 229.483 C 97.471 230.110,97.500 230.317,97.500 238.229 C 97.500 245.964,97.467 246.228,96.413 246.967 C 95.743 247.436,30.733 247.466,29.826 246.997 C 28.668 246.398,28.646 246.228,28.646 238.077 L 28.646 230.593 29.424 229.880 L 30.202 229.167 62.924 229.167 C 91.765 229.167,95.718 229.204,96.257 229.483 M193.802 269.727 C 194.003 269.779,194.331 269.779,194.531 269.727 C 194.732 269.675,194.568 269.632,194.167 269.632 C 193.766 269.632,193.602 269.675,193.802 269.727 M198.802 269.727 C 199.003 269.779,199.331 269.779,199.531 269.727 C 199.732 269.675,199.568 269.632,199.167 269.632 C 198.766 269.632,198.602 269.675,198.802 269.727 M387.384 277.802 C 386.993 278.094,386.996 278.100,387.451 277.985 C 387.711 277.920,387.974 277.784,388.036 277.683 C 388.213 277.398,387.831 277.468,387.384 277.802 M142.656 279.115 C 148.070 279.145,156.930 279.145,162.344 279.115 C 167.758 279.084,163.328 279.058,152.500 279.058 C 141.672 279.058,137.242 279.084,142.656 279.115 M219.531 279.115 C 224.602 279.146,232.898 279.146,237.969 279.115 C 243.039 279.083,238.891 279.058,228.750 279.058 C 218.609 279.058,214.461 279.083,219.531 279.115 M64.115 279.323 C 69.529 279.354,78.388 279.354,83.802 279.323 C 89.216 279.292,84.786 279.267,73.958 279.267 C 63.130 279.267,58.701 279.292,64.115 279.323 M306.214 279.323 C 312.783 279.353,323.470 279.353,329.964 279.323 C 336.458 279.292,331.083 279.267,318.021 279.267 C 304.958 279.267,299.645 279.292,306.214 279.323 M29.323 279.531 C 33.820 279.563,41.180 279.563,45.677 279.531 C 50.174 279.500,46.495 279.474,37.500 279.474 C 28.505 279.474,24.826 279.500,29.323 279.531 M352.865 279.531 C 358.049 279.562,366.534 279.562,371.719 279.531 C 376.904 279.500,372.661 279.475,362.292 279.475 C 351.922 279.475,347.680 279.500,352.865 279.531 " stroke="none" fill="#ca215a" fill-rule="evenodd"></path><path id="path7" d="M199.686 0.244 C 199.629 0.396,199.558 58.833,199.530 130.104 L 199.479 259.688 196.667 259.713 C 188.899 259.785,183.951 262.164,184.607 265.512 C 184.839 266.690,191.081 266.598,91.771 266.877 C 26.252 267.061,20.315 267.039,18.750 266.597 C 14.663 265.443,11.944 262.846,10.503 258.719 L 9.896 256.979 9.892 211.042 C 9.890 185.776,9.937 147.057,9.996 125.000 L 10.104 84.896 12.396 84.835 C 13.656 84.802,14.898 84.827,15.156 84.891 L 15.625 85.008 15.625 169.341 C 15.625 245.773,15.656 253.780,15.956 254.806 C 16.777 257.613,19.080 259.776,21.912 260.398 C 23.501 260.747,175.132 261.352,175.642 261.011 L 176.064 260.729 176.001 197.083 C 175.966 162.078,175.938 113.516,175.938 89.167 L 175.938 44.896 180.208 44.886 L 184.479 44.876 184.535 40.042 L 184.591 35.208 177.458 35.208 C 164.949 35.208,130.190 35.633,127.812 35.815 C 125.260 36.010,123.813 36.530,121.534 38.069 C 118.994 39.784,67.174 69.955,64.271 71.408 C 56.496 75.301,59.230 74.994,31.823 75.055 L 9.583 75.104 9.583 61.627 C 9.583 53.558,9.506 48.102,9.390 48.030 C 9.100 47.851,9.093 33.612,9.382 33.433 C 9.509 33.355,9.546 33.137,9.466 32.948 C 9.386 32.759,9.254 31.714,9.173 30.625 C 9.093 29.536,9.017 46.083,9.006 67.396 C 8.995 88.708,8.933 126.208,8.868 150.729 C 8.704 213.488,8.746 269.271,8.960 269.271 C 8.978 269.271,9.024 269.458,9.061 269.688 C 9.171 270.357,9.325 270.888,9.638 271.667 C 10.296 273.307,10.516 273.750,10.671 273.750 C 10.760 273.750,10.833 273.899,10.833 274.081 C 10.833 274.263,11.509 275.084,12.335 275.904 C 13.161 276.725,13.765 277.279,13.677 277.135 C 13.412 276.705,13.685 276.839,14.398 277.490 C 14.768 277.829,15.149 278.057,15.244 277.999 C 15.339 277.940,15.417 278.001,15.417 278.135 C 15.417 278.269,15.557 278.324,15.729 278.258 C 15.901 278.192,16.042 278.234,16.042 278.352 C 16.042 278.470,16.127 278.513,16.232 278.448 C 16.337 278.384,16.454 278.420,16.493 278.529 C 16.531 278.637,17.031 278.789,17.604 278.865 C 18.177 278.941,18.740 279.060,18.854 279.131 C 18.969 279.201,19.272 279.231,19.528 279.198 C 19.784 279.165,20.085 279.195,20.199 279.265 C 20.445 279.417,54.187 279.424,54.339 279.272 C 54.397 279.214,67.109 279.168,82.587 279.169 C 98.065 279.171,124.651 279.120,141.667 279.055 C 158.682 278.991,175.018 278.931,177.969 278.923 C 181.345 278.914,183.333 278.832,183.333 278.703 C 183.333 278.590,183.474 278.551,183.646 278.617 C 183.818 278.683,183.958 278.641,183.958 278.523 C 183.958 278.405,184.044 278.362,184.149 278.427 C 184.425 278.597,185.550 277.589,185.927 276.833 C 186.187 276.313,186.250 275.359,186.250 271.959 C 186.250 269.366,186.331 267.683,186.458 267.604 C 186.573 267.533,186.667 267.580,186.667 267.708 C 186.667 267.836,186.760 267.883,186.875 267.813 C 186.990 267.742,187.083 267.783,187.083 267.904 C 187.083 268.026,187.265 268.125,187.488 268.125 C 187.710 268.125,187.950 268.219,188.021 268.333 C 188.092 268.448,188.425 268.542,188.762 268.542 C 189.099 268.542,189.375 268.631,189.375 268.740 C 189.375 268.849,189.940 269.002,190.630 269.080 C 191.320 269.158,191.932 269.299,191.991 269.393 C 192.049 269.488,192.234 269.512,192.403 269.448 C 192.571 269.383,192.872 269.395,193.073 269.475 C 194.466 270.028,200.076 269.854,202.252 269.191 C 202.630 269.075,203.076 269.032,203.241 269.096 C 203.406 269.159,203.542 269.100,203.542 268.963 C 203.542 268.827,203.659 268.757,203.802 268.808 C 203.945 268.859,204.319 268.772,204.633 268.613 C 204.947 268.455,205.252 268.327,205.310 268.329 C 205.858 268.351,206.057 268.289,206.339 268.006 C 206.519 267.826,206.667 267.750,206.667 267.837 C 206.667 267.925,206.804 267.814,206.973 267.592 C 207.141 267.369,207.281 267.269,207.285 267.369 C 207.289 267.469,207.432 267.434,207.604 267.292 C 207.881 267.062,207.919 267.656,207.933 272.422 C 207.953 279.172,207.888 278.785,209.011 278.875 C 210.435 278.989,269.021 279.169,304.497 279.168 C 324.902 279.168,341.649 279.218,341.711 279.281 C 341.885 279.454,381.667 279.501,381.667 279.328 C 381.667 279.244,382.018 279.183,382.448 279.192 C 382.878 279.200,383.464 279.154,383.750 279.089 C 384.036 279.025,384.411 278.943,384.583 278.907 C 384.755 278.872,385.019 278.765,385.170 278.671 C 385.321 278.577,385.497 278.552,385.560 278.616 C 385.624 278.680,386.028 278.553,386.458 278.333 C 386.888 278.114,387.314 278.001,387.403 278.082 C 387.493 278.163,387.505 278.122,387.430 277.991 C 387.280 277.727,387.844 277.430,388.144 277.616 C 388.248 277.680,388.333 277.634,388.333 277.512 C 388.333 277.391,388.464 277.292,388.623 277.292 C 389.006 277.292,390.953 275.663,390.883 275.401 C 390.854 275.289,390.971 275.142,391.144 275.076 C 391.317 275.010,391.458 274.822,391.458 274.659 C 391.458 274.495,391.603 274.306,391.780 274.239 C 392.189 274.082,392.892 272.697,392.757 272.315 C 392.688 272.121,392.743 272.080,392.922 272.191 C 393.106 272.304,393.138 272.274,393.026 272.092 C 392.937 271.947,392.964 271.766,393.086 271.691 C 393.553 271.402,393.746 268.652,393.732 262.500 C 393.724 259.005,393.670 256.264,393.612 256.408 C 393.554 256.551,393.420 256.616,393.316 256.552 C 393.211 256.487,393.125 256.569,393.125 256.734 C 393.125 256.900,392.749 257.786,392.290 258.704 C 390.831 261.618,388.282 263.547,384.446 264.639 L 382.813 265.104 338.438 265.053 C 272.176 264.976,209.321 264.784,208.889 264.657 C 208.479 264.536,208.362 35.832,208.771 35.302 C 209.243 34.692,209.156 2.837,208.683 3.125 C 208.589 3.182,208.421 3.065,208.308 2.865 C 208.196 2.664,207.983 2.500,207.834 2.500 C 207.686 2.500,207.397 2.315,207.192 2.088 C 206.987 1.862,206.746 1.722,206.656 1.778 C 206.566 1.833,206.355 1.742,206.187 1.574 C 206.020 1.407,205.825 1.328,205.754 1.399 C 205.683 1.470,205.625 1.428,205.625 1.307 C 205.625 1.186,205.480 1.030,205.302 0.962 C 205.089 0.881,205.023 0.926,205.109 1.096 C 205.181 1.238,205.092 1.172,204.911 0.950 C 204.731 0.727,204.583 0.622,204.583 0.715 C 204.583 0.808,204.447 0.771,204.280 0.633 C 204.113 0.494,203.902 0.425,203.811 0.478 C 203.720 0.532,203.411 0.483,203.125 0.369 C 202.233 0.014,199.807 -0.074,199.686 0.244 M76.296 12.305 C 72.636 13.026,70.209 16.825,71.126 20.401 C 72.691 26.511,80.794 27.383,83.572 21.741 C 85.969 16.871,81.637 11.253,76.296 12.305 M91.324 12.298 C 85.874 13.390,84.016 20.121,88.142 23.830 C 93.006 28.203,100.549 23.540,98.972 17.134 C 98.185 13.937,94.565 11.648,91.324 12.298 M106.113 12.300 C 100.206 13.469,98.720 21.304,103.798 24.509 C 109.181 27.908,115.809 22.404,113.549 16.412 C 112.466 13.540,109.141 11.702,106.113 12.300 M79.852 12.918 C 82.486 13.904,83.855 15.935,83.853 18.854 C 83.846 26.953,71.876 27.450,71.300 19.375 C 70.962 14.632,75.426 11.262,79.852 12.918 M95.249 13.090 C 101.139 15.965,99.501 24.738,92.996 25.163 C 85.340 25.663,83.505 15.068,90.833 12.684 C 91.824 12.362,94.205 12.581,95.249 13.090 M109.674 12.929 C 113.076 14.202,114.693 18.388,113.065 21.705 C 110.121 27.699,101.042 25.546,101.042 18.854 C 101.042 14.320,105.398 11.330,109.674 12.929 M90.803 14.040 C 88.637 14.813,87.288 17.032,87.564 19.366 C 88.210 24.816,95.888 25.488,97.427 20.229 C 98.601 16.216,94.759 12.626,90.803 14.040 M75.465 14.399 C 70.985 16.616,72.191 23.383,77.157 23.895 C 81.621 24.356,84.346 19.090,81.457 15.585 C 80.135 13.982,77.401 13.440,75.465 14.399 M94.193 14.280 C 96.224 14.996,97.405 16.906,97.256 19.237 C 96.873 25.258,87.814 24.853,87.855 18.818 C 87.879 15.357,90.970 13.144,94.193 14.280 M79.101 14.387 C 84.046 16.241,82.923 23.549,77.695 23.540 C 73.380 23.532,71.312 18.664,74.340 15.642 C 75.679 14.306,77.562 13.809,79.101 14.387 M59.868 20.436 C 73.704 35.681,64.673 62.117,44.391 65.745 C 43.408 65.920,42.316 66.153,41.964 66.261 C 41.612 66.370,40.980 66.458,40.558 66.458 C 39.083 66.458,39.808 66.839,41.562 66.985 C 65.636 68.990,79.127 39.051,61.897 21.858 C 59.357 19.323,57.985 18.363,59.868 20.436 M37.708 21.567 C 23.750 24.431,18.277 41.513,28.012 51.828 C 39.291 63.779,59.256 56.067,59.443 39.688 C 59.575 28.077,48.990 19.252,37.708 21.567 M45.729 22.077 C 61.544 26.155,64.058 47.830,49.583 55.297 C 37.931 61.308,24.177 53.526,23.399 40.482 C 22.677 28.384,33.999 19.052,45.729 22.077 M172.020 44.956 C 172.633 45.346,172.698 47.256,172.703 65.052 C 172.706 74.992,172.671 83.125,172.626 83.125 C 172.581 83.125,171.993 82.586,171.320 81.927 C 169.698 80.340,166.283 78.642,167.195 79.875 C 167.305 80.025,167.743 80.606,168.166 81.167 C 168.590 81.728,169.153 82.703,169.416 83.333 L 169.896 84.479 169.951 134.063 C 170.006 183.161,170.002 183.659,169.589 185.025 C 168.816 187.576,166.830 189.953,164.491 191.126 C 162.124 192.312,163.969 192.251,126.421 192.381 C 80.572 192.540,51.530 192.775,51.315 192.990 C 51.182 193.123,54.063 194.480,55.059 194.754 C 55.602 194.903,64.815 194.914,84.642 194.788 C 100.480 194.688,125.156 194.547,139.479 194.473 C 170.149 194.316,168.129 194.510,171.345 191.406 C 172.028 190.747,172.657 190.208,172.744 190.208 C 172.897 190.208,173.097 257.546,172.946 258.075 C 172.904 258.219,172.665 258.389,172.413 258.452 C 171.525 258.675,24.940 257.910,24.066 257.678 C 21.755 257.065,19.557 255.130,18.765 253.012 L 18.333 251.859 18.333 168.430 C 18.333 101.828,18.386 84.999,18.594 84.993 C 18.737 84.989,21.128 84.992,23.908 85.000 L 28.961 85.013 29.199 84.434 C 30.868 80.370,32.681 78.474,36.065 77.251 L 37.396 76.771 54.896 76.667 C 69.295 76.581,72.488 76.511,72.917 76.273 C 73.496 75.951,103.538 58.777,116.613 51.292 C 127.375 45.132,127.103 45.226,134.896 45.015 C 142.469 44.811,171.718 44.764,172.020 44.956 M223.125 45.905 C 220.516 46.481,218.536 47.967,217.456 50.162 L 216.771 51.553 216.717 60.724 C 216.388 117.002,216.333 258.256,216.640 258.512 C 216.924 258.749,222.765 258.773,252.604 258.661 C 343.611 258.319,379.041 258.108,379.947 257.905 C 382.318 257.374,384.720 255.483,385.689 253.386 L 386.146 252.396 386.199 168.940 L 386.252 85.485 374.967 85.347 C 368.760 85.271,360.861 85.209,357.414 85.210 C 336.679 85.217,332.367 84.847,329.357 82.799 C 328.488 82.208,322.816 78.836,316.753 75.305 C 310.690 71.774,302.167 66.807,297.813 64.266 C 272.974 49.774,269.985 48.121,264.896 46.068 C 263.798 45.625,225.078 45.474,223.125 45.905 M264.646 49.094 C 265.012 49.283,273.469 54.077,283.438 59.748 C 293.406 65.418,304.281 71.603,307.604 73.492 C 310.927 75.381,318.193 79.517,323.750 82.682 L 333.854 88.438 358.542 88.545 C 372.120 88.604,383.253 88.674,383.281 88.701 C 383.310 88.728,383.333 125.029,383.333 169.369 L 383.333 249.988 382.830 251.127 C 381.947 253.123,379.749 254.897,377.396 255.514 C 375.592 255.987,219.933 256.481,219.468 256.015 C 219.117 255.665,219.400 55.408,219.752 54.259 C 220.473 51.911,222.792 49.682,225.183 49.037 C 226.849 48.589,263.769 48.641,264.646 49.094 M93.333 78.264 C 91.704 78.900,91.456 81.224,92.936 81.989 C 95.083 83.100,97.092 80.422,95.344 78.779 C 94.849 78.315,93.856 78.060,93.333 78.264 M99.836 78.434 C 98.467 79.039,98.245 80.788,99.414 81.771 C 101.349 83.400,103.849 80.826,102.135 78.969 C 101.428 78.203,100.729 78.040,99.836 78.434 M94.905 79.261 C 96.112 80.468,94.598 82.290,93.262 81.239 C 92.429 80.583,92.512 79.524,93.438 78.999 C 94.059 78.647,94.341 78.697,94.905 79.261 M101.534 79.182 C 102.546 79.978,102.016 81.510,100.729 81.510 C 99.442 81.510,98.912 79.978,99.924 79.182 C 100.226 78.944,100.588 78.750,100.729 78.750 C 100.870 78.750,101.232 78.944,101.534 79.182 M235.207 95.402 C 233.694 95.864,232.232 97.168,231.515 98.693 C 230.982 99.828,230.833 123.967,231.348 125.740 C 231.780 127.224,232.777 128.466,234.167 129.250 L 235.313 129.896 300.521 129.896 L 365.729 129.896 366.868 129.271 C 369.995 127.554,370.032 127.348,369.957 112.051 L 369.896 99.479 369.336 98.419 C 368.750 97.308,367.750 96.303,366.612 95.681 C 365.894 95.288,236.478 95.014,235.207 95.402 M365.808 95.741 C 367.179 96.148,368.453 97.275,369.093 98.646 L 369.579 99.688 369.580 112.396 C 369.581 127.567,369.590 127.520,366.658 129.012 L 365.521 129.590 350.484 129.535 L 335.447 129.479 338.058 126.771 C 339.494 125.281,342.616 122.047,344.997 119.583 C 347.378 117.120,350.345 114.036,351.590 112.731 C 352.835 111.425,355.356 108.800,357.193 106.897 C 359.029 104.994,361.224 102.711,362.072 101.823 L 363.612 100.208 359.358 100.186 C 357.018 100.174,350.604 100.100,345.104 100.021 C 334.419 99.868,334.375 99.872,334.375 100.866 C 334.375 101.077,334.245 101.250,334.086 101.250 C 333.807 101.250,330.616 104.430,326.769 108.542 C 325.751 109.630,323.929 111.557,322.719 112.822 C 321.510 114.088,319.677 116.039,318.646 117.157 C 317.615 118.276,316.292 119.678,315.707 120.272 C 315.121 120.867,312.885 123.206,310.738 125.469 L 306.833 129.583 289.771 129.583 C 280.386 129.583,272.708 129.507,272.708 129.413 C 272.708 129.320,273.013 128.963,273.385 128.621 C 273.920 128.130,281.026 120.793,284.271 117.382 C 284.615 117.021,287.052 114.489,289.688 111.755 C 292.323 109.022,295.464 105.762,296.667 104.510 C 297.870 103.258,299.252 101.824,299.738 101.325 C 300.225 100.825,300.553 100.411,300.468 100.403 C 300.382 100.396,299.422 100.398,298.333 100.407 L 296.354 100.424 292.708 104.144 C 290.703 106.190,286.906 110.100,284.271 112.833 C 281.635 115.566,278.387 118.930,277.052 120.308 C 272.744 124.753,271.696 125.852,271.623 126.000 C 271.583 126.080,270.746 126.928,269.761 127.885 L 267.972 129.623 262.901 129.595 C 257.141 129.562,257.424 129.619,258.358 128.679 C 268.443 118.525,280.537 106.144,280.588 105.920 C 280.625 105.758,280.748 105.625,280.860 105.625 C 280.973 105.625,282.199 104.477,283.586 103.073 L 286.107 100.521 282.793 100.393 C 273.995 100.053,267.402 100.171,266.927 100.677 C 266.685 100.935,265.403 102.224,264.078 103.542 C 262.753 104.859,261.668 106.099,261.668 106.296 C 261.667 106.505,261.553 106.610,261.393 106.549 C 261.231 106.486,257.541 110.097,252.283 115.462 C 247.422 120.421,242.381 125.534,241.080 126.823 C 239.779 128.112,238.746 129.179,238.784 129.193 C 238.823 129.208,239.885 129.286,241.146 129.366 C 243.303 129.504,243.203 129.514,239.451 129.548 L 235.464 129.583 234.351 129.002 C 233.106 128.351,232.006 127.068,231.676 125.880 C 231.352 124.712,231.382 100.199,231.709 99.107 C 232.093 97.825,233.625 96.296,235.000 95.824 C 236.621 95.267,363.940 95.186,365.808 95.741 M231.969 146.458 C 231.969 150.526,231.997 152.190,232.031 150.156 C 232.065 148.122,232.065 144.794,232.031 142.760 C 231.997 140.727,231.969 142.391,231.969 146.458 M369.007 152.708 C 369.007 153.109,369.050 153.273,369.102 153.073 C 369.154 152.872,369.154 152.544,369.102 152.344 C 369.050 152.143,369.007 152.307,369.007 152.708 M231.960 165.729 C 231.960 167.677,231.991 168.502,232.030 167.562 C 232.068 166.623,232.069 165.029,232.030 164.021 C 231.992 163.012,231.960 163.781,231.960 165.729 M260.469 173.073 C 273.617 173.103,295.133 173.103,308.281 173.073 C 321.430 173.043,310.672 173.019,284.375 173.019 C 258.078 173.019,247.320 173.043,260.469 173.073 M340.784 173.064 C 341.043 173.114,341.418 173.112,341.617 173.060 C 341.816 173.008,341.604 172.967,341.146 172.969 C 340.688 172.972,340.525 173.014,340.784 173.064 M56.497 177.607 C 53.556 178.425,51.685 181.055,51.925 184.036 C 52.428 190.311,60.919 191.946,63.681 186.300 C 65.977 181.608,61.517 176.210,56.497 177.607 M60.525 178.200 C 65.111 180.335,65.139 186.942,60.571 188.979 C 56.598 190.751,52.189 187.875,52.205 183.523 C 52.221 179.272,56.689 176.413,60.525 178.200 M117.636 178.089 C 117.181 178.592,117.198 179.434,117.673 179.864 C 118.294 180.425,163.313 180.390,163.822 179.827 C 164.314 179.284,164.257 178.420,163.704 178.033 C 162.928 177.489,118.130 177.545,117.636 178.089 M163.495 178.241 C 164.046 178.627,164.086 179.097,163.614 179.619 C 163.118 180.167,118.374 180.219,117.827 179.673 C 117.406 179.251,117.412 178.776,117.845 178.298 C 118.338 177.753,162.720 177.698,163.495 178.241 M56.665 178.320 C 50.654 180.148,51.842 188.958,58.100 188.958 C 63.176 188.958,65.431 182.627,61.511 179.384 C 60.255 178.346,58.120 177.877,56.665 178.320 M343.053 178.506 C 342.547 179.066,342.600 180.462,343.147 180.957 C 343.556 181.328,343.974 181.354,349.375 181.354 C 355.935 181.354,356.042 181.329,356.042 179.806 C 356.042 178.094,356.165 178.125,349.395 178.125 C 343.850 178.125,343.372 178.154,343.053 178.506 M359.167 178.542 C 358.632 179.076,358.623 180.214,359.148 180.862 L 359.546 181.354 365.271 181.416 L 370.997 181.477 371.582 180.974 C 372.289 180.365,372.383 179.218,371.780 178.552 C 371.186 177.896,359.822 177.887,359.167 178.542 M60.355 178.995 C 63.728 180.566,64.195 185.509,61.175 187.660 C 56.007 191.340,50.108 184.650,54.450 180.034 C 55.980 178.409,58.242 178.010,60.355 178.995 M355.417 178.750 C 355.916 179.249,355.951 179.947,355.509 180.579 C 355.187 181.038,355.142 181.042,349.375 181.042 C 342.968 181.042,342.917 181.031,342.917 179.641 C 342.917 178.394,343.216 178.333,349.375 178.333 C 354.722 178.333,355.021 178.354,355.417 178.750 M371.458 178.750 C 371.964 179.256,371.998 180.144,371.530 180.661 C 370.939 181.314,359.745 181.239,359.283 180.579 C 357.942 178.665,358.848 178.333,365.417 178.333 C 370.764 178.333,371.062 178.354,371.458 178.750 M117.975 182.504 C 117.100 182.856,117.064 184.299,117.919 184.731 C 118.645 185.099,162.627 185.123,163.433 184.756 C 164.459 184.288,164.373 182.894,163.294 182.517 C 162.487 182.236,118.673 182.223,117.975 182.504 M163.776 183.203 C 163.939 183.562,163.936 183.819,163.764 184.140 L 163.527 184.583 140.764 184.583 C 116.740 184.583,117.500 184.614,117.500 183.646 C 117.500 182.678,116.739 182.708,140.775 182.708 L 163.551 182.708 163.776 183.203 M361.146 186.947 C 351.444 190.158,353.872 204.159,364.053 203.714 C 372.970 203.324,375.243 191.267,367.135 187.371 C 365.708 186.686,362.601 186.466,361.146 186.947 M365.408 187.099 C 372.003 188.619,374.100 196.818,369.069 201.416 C 365.208 204.945,358.736 203.832,356.301 199.219 C 352.931 192.836,358.447 185.495,365.408 187.099 M117.636 187.673 C 117.181 188.176,117.198 189.018,117.673 189.447 C 118.294 190.009,163.313 189.973,163.822 189.411 C 164.314 188.867,164.257 188.004,163.704 187.616 C 162.928 187.073,118.130 187.128,117.636 187.673 M163.495 187.824 C 164.046 188.210,164.086 188.680,163.614 189.202 C 163.118 189.750,118.374 189.802,117.827 189.256 C 117.406 188.834,117.412 188.359,117.845 187.881 C 118.338 187.336,162.720 187.281,163.495 187.824 M361.860 188.398 C 357.522 189.623,355.325 194.266,357.241 198.158 C 359.450 202.644,364.932 203.834,368.450 200.591 C 373.681 195.769,368.660 186.476,361.860 188.398 M365.908 188.876 C 369.445 190.082,371.407 194.958,369.729 198.376 C 367.714 202.479,362.517 203.370,359.079 200.202 C 353.693 195.236,358.956 186.507,365.908 188.876 M274.514 189.306 C 274.438 189.382,274.375 191.302,274.375 193.573 L 274.375 197.702 273.767 198.382 L 273.159 199.063 254.343 199.167 C 233.488 199.282,234.757 199.184,235.946 200.597 L 236.495 201.250 255.868 201.250 L 275.240 201.250 275.860 200.630 L 276.480 200.011 276.417 195.091 L 276.354 190.172 275.770 189.669 C 275.183 189.165,274.773 189.046,274.514 189.306 M321.250 194.120 C 321.250 200.485,323.742 199.792,300.861 199.792 C 280.928 199.792,281.948 199.732,282.339 200.872 C 282.778 202.148,281.685 202.083,302.717 202.083 L 321.907 202.083 322.516 201.474 L 323.125 200.865 323.125 195.984 L 323.125 191.103 322.614 190.551 C 321.377 189.217,321.250 189.549,321.250 194.120 M38.750 199.788 C 40.400 199.892,41.270 200.060,42.292 200.475 C 43.036 200.777,43.460 200.884,43.232 200.713 C 42.366 200.063,40.229 199.582,38.363 199.617 L 36.563 199.650 38.750 199.788 M34.191 200.523 C 31.651 201.741,29.297 204.498,28.857 206.771 C 28.790 207.115,28.958 206.820,29.229 206.117 C 30.344 203.226,32.692 201.047,35.729 200.084 C 36.193 199.937,36.375 199.813,36.140 199.806 C 35.908 199.798,35.031 200.121,34.191 200.523 M44.271 201.501 C 50.302 205.945,49.507 215.180,42.813 218.449 C 37.516 221.035,31.234 218.465,29.150 212.860 C 28.927 212.261,28.797 212.052,28.862 212.396 C 29.177 214.085,30.992 216.652,32.640 217.738 C 37.585 220.999,38.754 221.492,41.563 221.500 C 51.600 221.529,55.643 208.591,47.374 202.902 C 46.222 202.109,43.316 200.797,44.271 201.501 M28.386 209.688 C 28.388 210.146,28.431 210.309,28.481 210.050 C 28.531 209.791,28.529 209.416,28.476 209.216 C 28.424 209.017,28.384 209.229,28.386 209.688 M77.273 211.494 L 76.525 212.292 68.028 212.292 L 59.531 212.292 59.667 212.969 C 59.741 213.341,60.036 213.880,60.322 214.167 L 60.843 214.688 69.780 214.688 L 78.716 214.688 79.254 214.182 C 79.976 213.504,80.012 212.136,79.323 211.547 C 78.261 210.639,78.080 210.634,77.273 211.494 M104.950 211.470 C 104.145 212.786,103.984 212.808,95.208 212.855 C 86.421 212.902,86.537 212.883,87.575 214.091 L 88.089 214.688 96.854 214.746 C 106.506 214.811,106.560 214.804,107.078 213.556 C 107.733 211.973,105.801 210.079,104.950 211.470 M234.454 219.981 C 234.097 220.199,233.698 220.682,233.569 221.053 C 233.192 222.134,233.245 237.095,233.629 238.014 C 234.238 239.471,232.206 239.375,262.591 239.375 L 289.993 239.375 290.674 238.767 L 291.354 238.159 291.354 229.479 L 291.354 220.799 290.674 220.191 L 289.993 219.583 262.549 219.584 C 235.942 219.585,235.084 219.597,234.454 219.981 M307.149 219.888 C 305.849 220.454,305.833 220.568,305.833 229.583 C 305.833 238.645,305.844 238.723,307.195 239.287 C 308.397 239.789,361.489 239.723,362.500 239.218 C 363.934 238.502,363.958 238.343,363.958 229.583 C 363.958 220.823,363.934 220.664,362.500 219.948 C 361.503 219.450,308.289 219.392,307.149 219.888 M290.000 220.058 C 291.198 220.657,291.250 221.052,291.238 229.375 C 291.225 237.867,291.180 238.212,290.000 238.802 C 288.991 239.306,236.105 239.373,234.906 238.872 C 233.746 238.387,233.750 238.416,233.750 229.479 C 233.750 220.595,233.752 220.577,234.860 220.095 C 235.791 219.690,289.192 219.654,290.000 220.058 M362.933 220.609 L 363.542 221.218 363.542 229.583 L 363.542 237.949 362.933 238.558 L 362.324 239.167 334.905 239.167 C 304.641 239.167,306.750 239.262,306.266 237.872 C 305.954 236.978,305.960 222.172,306.272 221.276 C 306.739 219.937,304.919 220.018,334.964 220.008 L 362.324 220.000 362.933 220.609 " stroke="none" fill="#481557" fill-rule="evenodd"></path><path id="path8" d="M190.417 0.329 C 189.786 0.496,189.107 0.828,188.906 1.068 C 188.706 1.308,188.542 1.438,188.542 1.357 C 188.542 1.196,186.326 2.402,185.922 2.784 C 185.784 2.914,185.426 3.198,185.127 3.415 C 184.499 3.869,184.422 4.153,184.948 4.076 C 185.148 4.047,185.315 3.891,185.318 3.730 C 185.320 3.569,185.481 3.450,185.674 3.465 C 185.867 3.480,186.006 3.386,185.981 3.257 C 185.957 3.127,186.117 3.020,186.337 3.020 C 186.557 3.019,186.776 2.902,186.824 2.758 C 186.871 2.615,187.011 2.559,187.133 2.635 C 187.260 2.713,187.296 2.675,187.217 2.547 C 187.088 2.339,187.565 2.068,187.998 2.104 C 188.099 2.112,188.253 2.005,188.339 1.866 C 188.947 0.882,188.958 3.255,188.958 131.158 C 188.958 234.429,189.011 260.416,189.219 260.411 C 189.362 260.408,190.557 260.191,191.875 259.928 L 194.271 259.452 194.323 129.934 L 194.375 0.417 194.988 0.417 C 195.325 0.417,195.658 0.323,195.729 0.208 C 195.929 -0.116,191.743 -0.020,190.417 0.329 M197.235 0.150 C 197.605 0.196,198.261 0.197,198.693 0.152 C 199.126 0.107,198.823 0.069,198.021 0.068 C 197.219 0.067,196.865 0.104,197.235 0.150 M17.665 4.306 C 18.191 4.565,18.459 4.592,18.811 4.421 C 19.064 4.298,19.411 4.151,19.583 4.094 C 19.755 4.038,19.240 3.986,18.438 3.980 L 16.979 3.968 17.665 4.306 M15.642 4.226 C 15.690 4.258,15.882 4.401,16.069 4.543 C 16.347 4.754,16.432 4.744,16.532 4.484 C 16.622 4.249,16.511 4.167,16.105 4.167 C 15.803 4.167,15.595 4.193,15.642 4.226 M13.160 4.888 C 12.320 5.160,11.469 5.531,11.269 5.712 C 11.069 5.893,10.800 6.042,10.671 6.042 C 10.411 6.042,9.375 7.320,9.375 7.641 C 9.375 7.755,9.512 7.847,9.678 7.847 C 9.845 7.847,9.933 7.769,9.874 7.674 C 9.815 7.578,9.850 7.500,9.952 7.500 C 10.054 7.500,10.130 7.289,10.121 7.031 C 10.108 6.678,10.217 6.566,10.563 6.578 C 10.815 6.586,10.980 6.527,10.929 6.445 C 10.774 6.194,11.434 5.779,11.779 5.912 C 11.967 5.984,12.051 5.949,11.977 5.831 C 11.803 5.548,12.875 5.167,13.387 5.330 C 13.642 5.410,13.752 5.380,13.672 5.251 C 13.601 5.135,13.841 4.937,14.205 4.809 C 14.685 4.642,14.907 4.641,15.009 4.807 C 15.101 4.956,15.194 4.921,15.277 4.705 C 15.451 4.252,15.006 4.290,13.160 4.888 M9.263 18.333 C 9.263 23.776,9.290 26.003,9.323 23.281 C 9.356 20.560,9.356 16.107,9.323 13.385 C 9.290 10.664,9.263 12.891,9.263 18.333 M36.146 13.120 C 23.263 15.704,13.268 28.339,14.552 40.417 C 14.707 41.870,14.720 41.782,14.735 39.167 C 14.803 27.647,22.284 17.538,33.298 14.083 C 40.350 11.870,49.109 12.858,54.466 16.471 C 55.538 17.194,55.619 17.224,55.000 16.666 C 51.538 13.545,42.499 11.845,36.146 13.120 M95.208 14.857 C 95.208 14.893,95.513 15.197,95.885 15.534 L 96.563 16.146 95.951 15.469 C 95.380 14.838,95.208 14.696,95.208 14.857 M74.931 16.389 C 74.672 16.648,74.790 17.455,75.104 17.575 C 75.808 17.845,76.476 17.086,76.020 16.536 C 75.770 16.235,75.166 16.153,74.931 16.389 M75.796 16.927 C 75.759 17.185,75.589 17.396,75.417 17.396 C 75.245 17.396,75.074 17.185,75.038 16.927 C 74.986 16.566,75.074 16.458,75.417 16.458 C 75.760 16.458,75.847 16.566,75.796 16.927 M97.148 18.854 C 97.149 19.542,97.188 19.798,97.234 19.423 C 97.281 19.049,97.280 18.486,97.232 18.173 C 97.185 17.860,97.147 18.167,97.148 18.854 M92.035 23.484 C 92.409 23.531,92.972 23.530,93.285 23.482 C 93.598 23.435,93.292 23.397,92.604 23.398 C 91.917 23.399,91.661 23.438,92.035 23.484 M256.211 34.739 C 257.850 34.774,260.475 34.774,262.044 34.739 C 263.612 34.704,262.271 34.675,259.063 34.675 C 255.854 34.675,254.571 34.704,256.211 34.739 M241.116 35.104 C 241.379 35.367,242.342 35.417,247.150 35.417 C 252.044 35.417,252.889 35.371,252.992 35.104 C 253.097 34.831,252.343 34.792,246.958 34.792 C 241.487 34.792,240.838 34.826,241.116 35.104 M265.000 35.116 C 265.000 35.295,265.092 35.385,265.204 35.315 C 265.471 35.150,266.294 35.593,266.151 35.824 C 266.091 35.923,266.240 35.951,266.484 35.887 C 266.882 35.783,266.846 35.722,266.120 35.282 C 265.168 34.706,265.000 34.681,265.000 35.116 M209.135 35.260 C 209.568 35.694,229.097 35.752,229.097 35.320 C 229.097 35.037,227.942 35.000,218.986 35.000 C 210.897 35.000,208.927 35.052,209.135 35.260 M267.083 36.035 C 267.083 36.129,267.230 36.262,267.409 36.330 C 267.591 36.400,267.669 36.562,267.585 36.697 C 267.503 36.830,267.520 36.889,267.624 36.827 C 267.902 36.661,269.696 37.591,269.638 37.871 C 269.608 38.014,269.727 38.057,269.933 37.978 C 270.162 37.890,270.227 37.926,270.128 38.087 C 270.030 38.245,270.091 38.285,270.304 38.203 C 270.674 38.062,271.304 38.494,271.133 38.771 C 271.071 38.872,271.165 38.898,271.342 38.830 C 271.528 38.759,271.715 38.842,271.786 39.028 C 271.854 39.204,272.046 39.296,272.213 39.232 C 272.400 39.160,272.494 39.226,272.456 39.402 C 272.419 39.579,272.542 39.662,272.781 39.621 C 273.041 39.577,273.115 39.639,273.010 39.810 C 272.911 39.970,272.939 40.011,273.087 39.920 C 273.416 39.716,274.631 40.380,274.454 40.666 C 274.367 40.806,274.405 40.839,274.551 40.749 C 274.683 40.667,274.792 40.700,274.792 40.821 C 274.792 41.086,275.346 41.117,275.504 40.860 C 275.566 40.760,275.173 40.455,274.631 40.183 C 274.089 39.910,273.599 39.633,273.542 39.567 C 273.290 39.276,267.083 35.881,267.083 36.035 M66.298 38.542 C 66.298 38.943,66.341 39.107,66.394 38.906 C 66.446 38.706,66.446 38.378,66.394 38.177 C 66.341 37.977,66.298 38.141,66.298 38.542 M276.026 41.107 C 276.190 41.316,276.592 41.624,276.919 41.793 C 277.262 41.971,277.453 42.199,277.370 42.333 C 277.284 42.473,277.322 42.506,277.468 42.416 C 277.600 42.334,277.708 42.372,277.708 42.500 C 277.708 42.628,277.799 42.677,277.909 42.609 C 278.019 42.541,278.283 42.658,278.495 42.870 C 278.707 43.082,279.005 43.214,279.157 43.163 C 279.324 43.107,279.375 43.166,279.284 43.311 C 279.203 43.444,279.213 43.531,279.307 43.506 C 279.597 43.427,280.428 43.771,280.331 43.929 C 280.280 44.010,280.420 44.077,280.640 44.077 C 281.289 44.077,281.108 43.841,280.052 43.310 C 279.508 43.036,279.014 42.748,278.954 42.669 C 278.894 42.591,278.613 42.420,278.329 42.290 C 277.551 41.935,276.509 41.341,276.096 41.017 C 275.760 40.753,275.754 40.761,276.026 41.107 M281.305 44.344 C 281.323 44.579,281.446 44.703,281.603 44.643 C 281.751 44.586,281.927 44.685,281.995 44.861 C 282.068 45.051,282.252 45.130,282.447 45.056 C 282.628 44.986,282.723 45.015,282.658 45.121 C 282.593 45.226,282.771 45.326,283.053 45.343 C 283.625 45.378,284.426 45.999,284.255 46.275 C 284.195 46.373,284.306 46.392,284.503 46.316 C 284.764 46.216,284.814 46.253,284.689 46.455 C 284.580 46.632,284.600 46.681,284.745 46.591 C 285.053 46.401,286.426 47.078,286.502 47.457 C 286.551 47.706,287.917 48.040,287.917 47.803 C 287.917 47.733,284.843 45.992,284.484 45.858 C 284.367 45.815,284.130 45.665,283.958 45.526 C 282.907 44.675,281.275 43.948,281.305 44.344 M288.673 48.433 C 288.740 48.607,288.884 48.750,288.993 48.750 C 289.102 48.750,289.134 48.843,289.064 48.956 C 288.991 49.073,289.073 49.109,289.255 49.040 C 289.578 48.916,290.283 49.439,290.074 49.649 C 290.010 49.712,290.135 49.717,290.350 49.661 C 290.772 49.551,291.754 50.260,291.513 50.501 C 291.433 50.581,291.543 50.579,291.759 50.496 C 292.053 50.384,292.109 50.415,291.981 50.622 C 291.868 50.805,291.891 50.848,292.051 50.749 C 292.357 50.560,293.561 51.259,293.394 51.529 C 293.325 51.640,293.374 51.666,293.503 51.586 C 293.632 51.506,294.030 51.593,294.388 51.778 C 294.746 51.963,295.074 52.079,295.118 52.035 C 295.215 51.938,292.954 50.625,292.690 50.625 C 292.585 50.625,292.500 50.540,292.500 50.437 C 292.500 50.334,292.242 50.143,291.927 50.014 C 291.612 49.884,290.927 49.524,290.404 49.212 C 288.435 48.038,288.539 48.085,288.673 48.433 M295.471 52.464 C 295.491 52.729,295.608 52.830,295.806 52.754 C 296.000 52.680,296.056 52.724,295.961 52.879 C 295.865 53.034,295.922 53.078,296.119 53.002 C 296.301 52.933,296.519 53.058,296.654 53.309 C 296.802 53.586,297.001 53.689,297.225 53.603 C 297.441 53.520,297.517 53.554,297.430 53.695 C 297.343 53.835,297.437 53.881,297.679 53.818 C 297.947 53.748,298.103 53.851,298.181 54.151 C 298.263 54.463,298.398 54.546,298.661 54.445 C 298.930 54.341,298.982 54.377,298.856 54.580 C 298.747 54.756,298.766 54.806,298.909 54.718 C 299.031 54.642,299.374 54.672,299.670 54.785 C 300.604 55.140,300.259 54.840,298.698 53.937 C 295.105 51.860,295.437 52.011,295.471 52.464 M300.349 55.293 C 300.264 55.514,300.326 55.567,300.566 55.475 C 300.779 55.393,300.850 55.429,300.760 55.575 C 300.616 55.808,301.272 56.127,302.096 56.224 C 302.217 56.238,302.249 56.358,302.168 56.491 C 302.077 56.637,302.110 56.675,302.252 56.587 C 302.380 56.508,302.658 56.616,302.870 56.828 C 303.082 57.040,303.372 57.175,303.515 57.127 C 303.657 57.079,303.933 57.173,304.127 57.334 C 304.321 57.496,304.738 57.738,305.053 57.873 C 305.369 58.007,305.604 58.236,305.574 58.382 C 305.543 58.536,305.681 58.618,305.906 58.580 C 306.166 58.535,306.240 58.597,306.135 58.768 C 306.037 58.925,306.064 58.969,306.204 58.883 C 306.463 58.722,308.171 59.549,308.035 59.769 C 307.986 59.849,308.127 59.927,308.348 59.944 C 308.569 59.960,308.750 59.904,308.750 59.817 C 308.750 59.700,301.407 55.395,300.607 55.043 C 300.530 55.010,300.414 55.122,300.349 55.293 M22.292 58.229 C 23.030 58.974,23.681 59.583,23.738 59.583 C 23.795 59.583,23.238 58.974,22.500 58.229 C 21.762 57.484,21.111 56.875,21.054 56.875 C 20.996 56.875,21.553 57.484,22.292 58.229 M309.013 60.176 C 309.033 60.438,309.150 60.538,309.348 60.463 C 309.560 60.381,309.600 60.429,309.481 60.622 C 309.384 60.780,309.392 60.847,309.501 60.780 C 309.753 60.625,311.100 61.196,310.972 61.403 C 310.917 61.492,311.168 61.564,311.530 61.563 C 311.974 61.563,312.168 61.654,312.128 61.845 C 312.055 62.191,312.484 62.743,312.714 62.600 C 313.014 62.415,313.993 62.901,313.835 63.157 C 313.746 63.301,313.777 63.341,313.912 63.258 C 314.036 63.181,314.391 63.352,314.699 63.639 C 315.008 63.925,315.341 64.109,315.439 64.049 C 315.720 63.875,316.485 64.371,316.328 64.626 C 316.242 64.765,316.281 64.797,316.426 64.708 C 316.709 64.532,317.566 65.073,317.349 65.290 C 317.267 65.372,317.377 65.371,317.593 65.288 C 317.887 65.175,317.942 65.207,317.814 65.413 C 317.701 65.597,317.724 65.640,317.884 65.541 C 318.190 65.352,319.394 66.050,319.227 66.320 C 319.158 66.432,319.210 66.456,319.343 66.374 C 319.475 66.292,319.583 66.313,319.583 66.420 C 319.583 66.527,319.871 66.672,320.222 66.742 C 320.573 66.813,320.803 66.964,320.732 67.079 C 320.655 67.204,320.746 67.232,320.961 67.150 C 321.223 67.049,321.273 67.086,321.148 67.288 C 321.036 67.469,321.058 67.515,321.212 67.420 C 321.541 67.216,322.756 67.880,322.579 68.166 C 322.492 68.307,322.530 68.339,322.678 68.248 C 322.813 68.165,322.974 68.242,323.044 68.423 C 323.113 68.602,323.253 68.696,323.355 68.632 C 323.458 68.569,323.542 68.622,323.542 68.750 C 323.542 68.878,323.635 68.925,323.750 68.854 C 323.865 68.783,323.958 68.830,323.958 68.958 C 323.958 69.086,324.042 69.139,324.145 69.076 C 324.247 69.013,324.387 69.107,324.456 69.285 C 324.525 69.466,324.687 69.544,324.822 69.461 C 324.956 69.378,325.192 69.488,325.353 69.708 C 325.512 69.926,325.686 70.081,325.738 70.052 C 325.984 69.918,326.261 70.022,326.147 70.206 C 326.075 70.323,326.157 70.359,326.337 70.290 C 326.667 70.164,327.784 70.897,327.576 71.104 C 327.512 71.169,327.663 71.168,327.914 71.103 C 328.454 70.961,328.614 71.080,325.417 69.236 C 319.510 65.829,318.769 65.417,318.558 65.417 C 318.434 65.417,318.333 65.334,318.333 65.234 C 318.333 65.133,318.029 64.927,317.656 64.777 C 317.284 64.626,316.932 64.444,316.875 64.371 C 316.818 64.299,316.396 64.031,315.938 63.777 C 315.182 63.357,315.103 63.234,315.093 62.465 C 315.085 61.868,314.962 61.534,314.676 61.336 C 314.453 61.182,314.158 60.959,314.019 60.840 C 313.647 60.522,312.576 60.579,312.217 60.938 C 311.832 61.323,311.467 61.333,310.932 60.975 C 309.321 59.897,308.981 59.755,309.013 60.176 M313.852 61.254 C 313.789 61.355,314.022 61.647,314.369 61.904 C 314.716 62.160,315.000 62.462,315.000 62.574 C 315.000 62.686,314.938 62.716,314.863 62.641 C 314.788 62.565,314.597 62.611,314.439 62.742 C 314.214 62.928,314.008 62.848,313.493 62.376 C 313.131 62.043,312.694 61.641,312.521 61.483 C 312.247 61.232,312.263 61.213,312.650 61.335 C 312.925 61.423,313.197 61.363,313.369 61.177 C 313.656 60.866,314.052 60.930,313.852 61.254 M328.673 71.349 C 328.740 71.524,328.884 71.667,328.993 71.667 C 329.102 71.667,329.134 71.759,329.064 71.873 C 328.988 71.995,329.082 72.023,329.294 71.941 C 329.556 71.841,329.606 71.878,329.481 72.080 C 329.368 72.264,329.391 72.306,329.551 72.207 C 329.683 72.126,329.792 72.164,329.792 72.292 C 329.792 72.420,329.866 72.479,329.956 72.423 C 330.225 72.257,331.464 72.947,331.319 73.182 C 331.240 73.309,331.287 73.335,331.433 73.245 C 331.569 73.161,332.003 73.282,332.397 73.515 C 332.791 73.747,333.451 74.001,333.865 74.078 C 334.278 74.156,334.660 74.331,334.712 74.468 C 334.770 74.618,335.066 74.679,335.459 74.622 C 335.927 74.553,336.188 74.633,336.388 74.907 C 336.541 75.117,336.667 75.176,336.667 75.040 C 336.667 74.903,336.831 74.782,337.031 74.770 C 337.232 74.759,336.880 74.635,336.250 74.495 C 334.270 74.055,332.915 73.522,331.065 72.453 C 328.454 70.946,328.532 70.981,328.673 71.349 M337.708 75.104 C 337.851 75.276,338.150 75.417,338.374 75.417 C 338.597 75.417,338.920 75.276,339.092 75.104 C 339.370 74.826,339.296 74.792,338.427 74.792 C 337.581 74.792,337.484 74.834,337.708 75.104 M345.312 75.207 C 345.397 75.346,353.543 75.417,369.271 75.417 C 386.055 75.417,393.141 75.483,393.239 75.641 C 393.315 75.764,393.365 76.842,393.349 78.037 C 393.325 79.879,393.370 80.208,393.646 80.208 C 393.926 80.208,393.963 79.856,393.913 77.656 L 393.854 75.104 369.518 75.051 C 353.267 75.016,345.226 75.068,345.312 75.207 M117.083 76.876 C 153.856 76.965,161.918 77.034,162.604 77.266 C 164.083 77.765,165.447 78.554,166.538 79.541 L 167.604 80.506 166.688 79.536 C 166.183 79.003,165.224 78.275,164.556 77.919 C 162.084 76.601,164.810 76.669,116.458 76.720 L 72.396 76.767 117.083 76.876 M29.088 85.112 C 29.017 85.298,28.975 86.263,28.995 87.257 L 29.033 89.063 29.155 86.979 C 29.288 84.722,29.283 84.604,29.088 85.112 M393.433 102.604 C 393.433 111.885,393.458 115.713,393.490 111.109 C 393.521 106.506,393.521 98.912,393.490 94.234 C 393.458 89.556,393.433 93.323,393.433 102.604 M28.850 110.938 C 28.850 121.365,28.875 125.600,28.906 120.349 C 28.937 115.098,28.937 106.567,28.906 101.391 C 28.875 96.214,28.850 100.510,28.850 110.938 M393.542 144.021 C 393.542 158.291,393.464 168.122,393.351 168.240 C 393.234 168.360,393.275 168.542,393.455 168.706 C 393.709 168.938,393.750 165.599,393.750 144.487 C 393.750 131.019,393.703 120.000,393.646 120.000 C 393.589 120.000,393.542 130.809,393.542 144.021 M28.641 149.271 C 28.641 159.240,28.667 163.348,28.698 158.401 C 28.729 153.454,28.729 145.298,28.698 140.276 C 28.667 135.254,28.641 139.302,28.641 149.271 M28.411 172.396 C 28.412 173.656,28.446 174.145,28.488 173.482 C 28.529 172.819,28.529 171.788,28.487 171.190 C 28.445 170.593,28.411 171.135,28.411 172.396 M28.544 174.971 C 28.534 176.369,31.952 180.325,35.916 183.504 C 40.795 187.416,49.021 192.516,50.417 192.495 C 50.589 192.492,50.194 192.270,49.539 192.001 C 42.374 189.054,31.068 180.104,29.059 175.790 C 28.777 175.183,28.545 174.815,28.544 174.971 M129.427 180.365 C 135.586 180.395,145.664 180.395,151.823 180.365 C 157.982 180.334,152.943 180.309,140.625 180.309 C 128.307 180.309,123.268 180.334,129.427 180.365 M233.833 187.375 L 233.125 188.083 233.125 192.805 C 233.125 195.873,233.207 197.687,233.358 197.982 C 233.722 198.695,234.422 199.159,235.104 199.141 C 235.727 199.124,235.726 199.123,235.003 198.953 C 233.412 198.579,233.333 198.292,233.333 192.889 L 233.333 188.093 233.942 187.484 L 234.551 186.875 253.722 186.875 L 272.893 186.875 273.478 187.377 L 274.063 187.880 274.174 192.638 L 274.286 197.396 274.326 192.708 C 274.369 187.644,274.338 187.486,273.191 186.899 C 272.865 186.733,267.294 186.667,253.639 186.667 L 234.542 186.667 233.833 187.375 M281.344 187.376 C 280.061 187.935,279.916 188.441,279.826 192.661 C 279.704 198.448,280.170 199.832,282.219 199.766 L 283.021 199.740 282.101 199.591 C 280.285 199.297,280.208 199.055,280.208 193.576 C 280.208 188.320,280.250 188.139,281.583 187.582 C 282.596 187.159,318.631 187.149,319.642 187.572 C 320.908 188.101,320.927 188.176,321.050 193.208 L 321.162 197.813 321.206 193.223 C 321.255 188.118,321.213 187.933,319.875 187.374 C 318.871 186.954,282.308 186.956,281.344 187.376 M129.427 189.948 C 135.586 189.979,145.664 189.979,151.823 189.948 C 157.982 189.917,152.943 189.892,140.625 189.892 C 128.307 189.892,123.268 189.917,129.427 189.948 M368.125 190.521 C 368.514 190.922,368.879 191.250,368.936 191.250 C 368.993 191.250,368.722 190.922,368.333 190.521 C 367.945 190.120,367.580 189.792,367.522 189.792 C 367.465 189.792,367.736 190.120,368.125 190.521 M144.323 192.239 C 146.414 192.273,149.836 192.273,151.927 192.239 C 154.018 192.205,152.307 192.177,148.125 192.177 C 143.943 192.177,142.232 192.205,144.323 192.239 M85.573 192.448 C 87.893 192.481,91.690 192.481,94.010 192.448 C 96.331 192.414,94.432 192.387,89.792 192.387 C 85.151 192.387,83.253 192.414,85.573 192.448 M60.263 192.649 C 60.580 192.697,61.049 192.696,61.305 192.647 C 61.561 192.597,61.302 192.558,60.729 192.560 C 60.156 192.561,59.947 192.602,60.263 192.649 M370.261 195.521 C 370.263 195.979,370.306 196.142,370.356 195.883 C 370.406 195.624,370.404 195.249,370.351 195.050 C 370.299 194.850,370.259 195.063,370.261 195.521 M368.216 200.260 L 367.604 200.938 368.281 200.326 C 368.912 199.755,369.054 199.583,368.893 199.583 C 368.857 199.583,368.553 199.888,368.216 200.260 M86.681 207.657 C 85.168 208.428,84.638 210.175,85.546 211.397 C 86.371 212.509,86.335 212.505,95.244 212.449 L 103.509 212.396 104.073 211.875 C 105.660 210.410,105.265 208.271,103.268 207.514 C 102.161 207.095,87.537 207.221,86.681 207.657 M393.596 217.221 C 393.173 217.392,393.224 254.296,393.648 254.720 C 393.923 254.994,393.958 252.860,393.958 236.057 C 393.958 225.621,393.935 217.091,393.906 217.100 C 393.878 217.109,393.738 217.163,393.596 217.221 M29.424 229.880 L 28.646 230.593 28.646 238.077 C 28.646 246.228,28.668 246.398,29.826 246.997 C 30.310 247.247,35.324 247.292,63.172 247.292 C 99.247 247.292,96.489 247.393,97.189 246.039 C 97.654 245.139,97.650 231.311,97.184 230.410 C 96.496 229.080,98.877 229.167,62.924 229.167 L 30.202 229.167 29.424 229.880 M96.068 229.701 C 97.228 230.301,97.292 230.748,97.291 238.275 C 97.291 245.744,97.220 246.228,96.042 246.817 C 95.184 247.246,30.827 247.198,29.996 246.769 C 28.974 246.240,28.958 246.114,28.958 238.357 C 28.958 230.417,28.994 230.147,30.099 229.666 C 31.135 229.214,95.193 229.249,96.068 229.701 " stroke="none" fill="#fa8e56" fill-rule="evenodd"></path></g></svg>